/* XPM */
static char * BL_inject_token_xpm[] = {
"32 32 3 1",
" 	c None",
".	c #120E0C",
"+	c #000000",
"               .                ",
"               .                ",
"               .                ",
"               .  +++++++++++   ",
"               .  +++++++++++   ",
"               .  +++++++++++   ",
"               .      +++       ",
"               .      +++       ",
"               .      +++       ",
"               .      +++       ",
"               .      +++       ",
"               .      +++       ",
"               .      +++       ",
"               .      +++       ",
"               .                ",
"            ....                ",
"            .   ................",
"            .   .               ",
"         ....   .               ",
"         .   ....               ",
"         .   .                  ",
"      ....   .                  ",
"      .   ....                  ",
"      .   .                     ",
"   ....   .                     ",
"   .   ....                     ",
"   .   .                        ",
"....   .                        ",
".   ....                        ",
". + .                           ",
".   .                           ",
".....                           "};
