/* XPM */
static char * BR_inject_token_xpm[] = {
"32 32 4 1",
" 	c None",
".	c #FFFFFF",
"+	c #120E0C",
"@	c #000000",
"................+               ",
"................+               ",
"................+               ",
"...@@@@@@@@@@@..+               ",
"...@@@@@@@@@@@..+               ",
"...@@@@@@@@@@@..+               ",
".......@@@......+               ",
".......@@@......+               ",
".......@@@......+               ",
".......@@@......+               ",
".......@@@......+               ",
".......@@@......+               ",
".......@@@......+               ",
".......@@@......+               ",
"................+               ",
"................++++            ",
"++++++++++++++++...+            ",
"               +...+            ",
"               +...++++         ",
"               ++++...+         ",
"                  +...+         ",
"                  +...++++      ",
"                  ++++...+      ",
"                     +...+      ",
"                     +...++++   ",
"                     ++++...+   ",
"                        +...+   ",
"                        +...++++",
"                        ++++...+",
"                           +.@.+",
"                           +...+",
"                           +++++"};
