/* XPM */
static char * c_mass_xpm[] = {
"32 32 7 1",
" 	c None",
".	c #FBFE00",
"+	c #000000",
"@	c #E800FE",
"#	c #D91C1C",
"$	c #E0DDDD",
"%	c #3A22F5",
"                                ",
"                                ",
"                                ",
"             .....              ",
"            .......             ",
"            .......  +++++      ",
"            ....... +++++++     ",
"     @@@@@  ....... +++++++     ",
"    @@@@@@@ ....... +++++++     ",
"    @@@@@@@  .....  +++++++     ",
"    @@@@@@@         +++++++     ",
"    @@@@@@@   +++    +++++      ",
"    @@@@@@@  +  ++              ",
"     @@@@@   +     #####        ",
"             +    #######       ",
"             +    #######       ",
"       $$$$$ +    #######       ",
"      $$$$$$$+    #######       ",
"      $$$$$$$+   +#######       ",
"      $$$$$$$ +++  #####        ",
"      $$$$$$$                   ",
"      $$$$$$$    %%%%%          ",
"       $$$$$    %%%%%%%         ",
"                %%%%%%%         ",
"                %%%%%%%         ",
"                %%%%%%%         ",
"                %%%%%%%         ",
"                 %%%%%          ",
"                                ",
"                                ",
"                                ",
"                                "};
