/* XPM */
static char * CC_arrow_xpm[] = {
"32 32 4 1",
" 	c None",
".	c #ED0D47",
"+	c #000000",
"@	c #FFFFFF",
"                                ",
"                                ",
"                                ",
"                                ",
"                                ",
"                                ",
"                                ",
"                                ",
"                                ",
"                                ",
"                                ",
"                                ",
"                                ",
"                                ",
"                                ",
"               .++++++++++++    ",
"               +@@@+@@@+@@@+    ",
"               +@+@+@+@+@+@+    ",
"               +@@@@@@@+@@@+    ",
"               +++@+@+++++++    ",
"               +@@@@@@@+        ",
"               +@+@+@+@+++      ",
"               +@@@+@@@@@+      ",
"               +++++++@+@+++    ",
"               +@@@+ +@@@@@+    ",
"               +@+@+ +++@+@+++  ",
"               +@@@+   +@@@@@+  ",
"               +++++   +++@+@+++",
"                         +@@@@@+",
"                         +++@+@+",
"                           +@@@+",
"                           +++++"};
