/* XPM */
static char * c_del01_xpm[] = {
"32 32 2 1",
" 	c None",
".	c #000000",
"                                ",
"                                ",
"                                ",
"                                ",
"                                ",
"                                ",
"                                ",
"                                ",
"         ..           ..        ",
"         ...         ...        ",
"          ...       ...         ",
"           ...     ...          ",
"            ...   ...           ",
"             ... ...            ",
"              .....             ",
"               ...              ",
"              .....             ",
"             ... ...            ",
"            ...   ...           ",
"           ...     ...          ",
"          ...       ...         ",
"         ...         ...        ",
"         ..           ..        ",
"                                ",
"                                ",
"                                ",
"                                ",
"                                ",
"                                ",
"                                ",
"                                ",
"                                "};
