/* XPM */
static char * CC_DELETE_xpm[] = {
"32 32 2 1",
" 	c None",
".	c #000000",
"                                ",
"                                ",
"                                ",
"                                ",
"                                ",
"                                ",
"                                ",
"                                ",
"                                ",
"                                ",
"                                ",
"    ...       .      .          ",
"    . ..      .      .          ",
"    .  .      .      .          ",
"    .  .      .      .          ",
"    .  . .... . .... .. ....    ",
"    .  . .  . . .  . .  .  .    ",
"    .  . .... . .... .  ....    ",
"    . .. .    . .    .  .       ",
"    ...  .... . .... .. ....    ",
"                                ",
"                                ",
"                                ",
"                                ",
"                                ",
"                                ",
"                                ",
"                                ",
"                                ",
"                                ",
"                                ",
"                                "};
