/* XPM */
static char * CC_forbidden_xpm[] = {
"32 32 6 1",
" 	c None",
".	c #000000",
"+	c #FFFFFF",
"@	c #999999",
"#	c #161616",
"$	c #F9F9F9",
"                                ",
"                                ",
"                                ",
"                                ",
"           .........            ",
"          ...........           ",
"         ..+++++++++..          ",
"        ..++.......++..         ",
"       ..++.........++..        ",
"      ..++..@@@@@@@..++..       ",
"     ..++...@@@@@@@...++..      ",
"    ..++.....@@@@ .....++..     ",
"    ..+..@@...@@@...@@..+..     ",
"    ..+..@@@...@...@@@..+..     ",
"    ..+..@@@@.....@@@@..+..     ",
"    ..+..@@@@@...@@@@@..+..     ",
"    ..+..@@@@.....@@@@..+..     ",
"    ..+..@@@...@...@@@..+..     ",
"    ..+.#@@...@@@...@@..+..     ",
"    ..++.....@@@@@.....$+.      ",
"     ..++...@@@@@@@...++..      ",
"      ..++..@@@@@@@..++..       ",
"       ..++.........++..        ",
"        ..++.......++..         ",
"         ..+++++++++..          ",
"          ...........           ",
"           .........            ",
"                                ",
"                                ",
"                                ",
"                                ",
"                                "};
