/* XPM */
static char * CC_grab_tongs01_xpm[] = {
"48 32 2 1",
" 	c None",
".	c #000000",
"                                                ",
"                   .....                        ",
"                   .   .                        ",
"                   .   .                        ",
"                ....   ....                     ",
"                .   ...   .                     ",
"                .   . .   .                     ",
"             ....   . .   ....                  ",
"             .   .... ....   .                  ",
"             .   .       .   .                  ",
"             .   .       .   ....               ",
"             .....       ....   .               ",
"                            .   .               ",
"                            .   .............   ",
"                            ....                ",
"                               .                ",
"                               .                ",
"                            ....                ",
"                            .   .............   ",
"                            .   .               ",
"             .....       ....   .               ",
"             .   .       .   ....               ",
"             .   .       .   .                  ",
"             .   .... ....   .                  ",
"             ....   . .   ....                  ",
"                .   . .   .                     ",
"                .   ...   .                     ",
"                ....   ....                     ",
"                   .   .                        ",
"                   .   .                        ",
"                   .....                        ",
"                                                "};
