/* XPM */
static char * CC_L_name_R_name_xpm[] = {
"32 32 4 1",
" 	c None",
".	c #120E0C",
"+	c #000000",
"@	c #FFFFFF",
"                                ",
"                                ",
"                                ",
"                                ",
"                                ",
"                                ",
"                                ",
"                                ",
"                                ",
"                                ",
"                                ",
"                                ",
"                                ",
"                                ",
"                                ",
"           ..++++++++           ",
"           .+++++++++           ",
"           .+@++++@++           ",
"         ...+++++++++++         ",
"         ++++..++++++++         ",
"      ++++@+++    +++@++++      ",
"+++++++@@@@@++    ++@@@@@+++++++",
"+@@@@@@@@@@+++    +++@@@@@@@@@@+",
"+@+@@@@@+@@+        +@@+@@@@@+@+",
"+@++@@@@+@@+        +@@++@@@@+@+",
"+@+@+@@@+@++        ++@+@+@@@+@+",
"+@+@@+@@+@+          +@+@@+@@+@+",
"+@+@@@+@+@+          +@+@@@+@+@+",
"+@+@@@@++@+          +@+@@@@++@+",
"+@+@@@@@+@+          +@+@@@@@+@+",
"+@@@@@@@@@+          +@@@@@@@@@+",
"+++++++++++          +++++++++++"};
