/* XPM */
static char * CC_L_change_R_blank_xpm[] = {
"32 32 4 1",
" 	c None",
".	c #120E0C",
"+	c #000000",
"@	c #FFFFFF",
"                                ",
"                                ",
"                                ",
"                                ",
"                                ",
"                                ",
"                                ",
"                                ",
"                                ",
"                                ",
"                                ",
"                                ",
"                                ",
"                                ",
"                                ",
"           ..+++                ",
"           .++++                ",
"           .+@++                ",
"         ...++++                ",
"         ++++..+                ",
"         +@+++                  ",
"       +++@@++                  ",
"       +@@@+++                  ",
"       +@@@+                    ",
"     +++@@@+                    ",
"++++++@@@+++                    ",
"++@@@@@@@+                      ",
"+@+@+@@@@+                      ",
"+@@+@@++++                      ",
"+@+@+@+                         ",
"++@@@++                         ",
"+++++++                         "};
