/* XPM */
static char * CC_L_blank_R_name_xpm[] = {
"32 32 3 1",
" 	c None",
".	c #000000",
"+	c #FFFFFF",
"                                ",
"                                ",
"                                ",
"                                ",
"                                ",
"                                ",
"                                ",
"                                ",
"                                ",
"                                ",
"                                ",
"                                ",
"                                ",
"                                ",
"                                ",
"                                ",
"                ...             ",
"                .+.             ",
"                .....           ",
"                  .+...         ",
"                  ..++....      ",
"                   .+++++.......",
"                   ..++++++++++.",
"                    .++.+++++.+.",
"                    .++..++++.+.",
"                    ..+.+.+++.+.",
"                     .+.++.++.+.",
"                     .+.+++.+.+.",
"                     .+.++++..+.",
"                     .+.+++++.+.",
"                     .+++++++++.",
"                     ..........."};
