/* XPM */
static char * CC_L_blank_R_add_xpm[] = {
"32 32 4 1",
" 	c None",
".	c #000000",
"+	c #120E0C",
"@	c #FFFFFF",
"                                ",
"                                ",
"                                ",
"                                ",
"                                ",
"                                ",
"                                ",
"                                ",
"                                ",
"                                ",
"                                ",
"                                ",
"                                ",
"                                ",
"                                ",
"                ...++           ",
"                .@@@+           ",
"                .@.@+           ",
"                .@@@+++         ",
"                .++@@@.         ",
"                  .@.@.         ",
"                  .@@@...       ",
"                  ...@@@.       ",
"                    .@.@.       ",
"                    .@@@...     ",
"                    ...@@@......",
"                      .@.@@@@@@.",
"                      .@@@@@.@@.",
"                      ....@...@.",
"                         .@@.@@.",
"                         .@@@@@.",
"                         ......."};
