/* XPM */
static char * CC_L_add_R_ask_xpm[] = {
"32 32 4 1",
" 	c None",
".	c #000000",
"+	c #FFFFFF",
"@	c #120E0C",
"                                ",
"                                ",
"                                ",
"                                ",
"                                ",
"                                ",
"                                ",
"                                ",
"                                ",
"                                ",
"                                ",
"                                ",
"                                ",
"                                ",
"                                ",
"            ......              ",
"            .+++.               ",
"            .+.+.   +++++       ",
"         @@@.+++.   ++....      ",
"         .+++@@..   +......     ",
"         .+.+.      +.+  ...    ",
"       ...+++.      +  +  ..    ",
"       .+++...          + ..    ",
"       .+.+.             ..     ",
"     ...+++.            ..+     ",
"......+++...           ..  +    ",
".++++++.+.             ..   +   ",
".++.+++++.             ..       ",
".+...+....                      ",
".++.++.                ..       ",
".+++++.                ..       ",
"........                        "};
