/* XPM */
static char * C_logo_xpm[] = {
"32 32 3 1",
" 	c None",
".	c #FFFFFF",
"+	c #000000",
"                                ",
"                                ",
"                                ",
"            .......             ",
"            .     .             ",
"            .     .             ",
"            .     .             ",
"            .     .             ",
"         +++++++  .             ",
"         +  .  +  .             ",
"         +  .  +  .             ",
"         +  .  +  .             ",
"         +  .  +  .             ",
"         +  .  +  .             ",
"         +  .  +  .             ",
"         +  .......             ",
"         +     +                ",
"         +     +                ",
"         +     +                ",
"         +     +                ",
"         +     +                ",
"         +++++++                ",
"                                ",
"                                ",
"                                ",
"                                ",
"                                ",
"                                ",
"                                ",
"                                ",
"                                ",
"                                "};
