/* XPM */
static char * energy_xpm[] = {
"32 32 3 1",
" 	c None",
".	c #0E2AFF",
"+	c #000000",
"       .                 .      ",
"       .                 .      ",
"      .                   .     ",
"     ..                   ..    ",
"     .       .......       .    ",
"    ..     ...     ...     ..   ",
"    .      .         .      .   ",
"    .     .           .     .   ",
"    .     .           .     .   ",
"    .   ...           ...   .   ",
"     .  .               .  .    ",
"        .     .....     .       ",
"      . .   ... . ...   . .     ",
"      .     .       .     .     ",
"       .   ..       ..   .      ",
"       +   .         .   +      ",
"       +  ..         ..  +      ",
"        ++.    ...    .++       ",
"         +.   .. ..   .+        ",
"          +  ..   ..  +         ",
"          ++..     ..++         ",
"          + .       . +         ",
"           ++       ++          ",
"           +++     +++          ",
"            ++     ++           ",
"            ++     ++           ",
"            ++     ++           ",
"            ++     ++           ",
"             +     +            ",
"             +     +            ",
"             +     +            ",
"             +     +            "};
