/* XPM */
static char * energy_2_xpm[] = {
"31 32 736 2",
"  	c #0922A0",
". 	c #0B24A2",
"+ 	c #0A25A1",
"@ 	c #082999",
"# 	c #0E20AD",
"$ 	c #05299E",
"% 	c #121FAC",
"& 	c #12229C",
"* 	c #0924A6",
"= 	c #0326AA",
"- 	c #0826A2",
"; 	c #0B24A0",
"> 	c #0826A3",
", 	c #0726A3",
"' 	c #0926A1",
") 	c #0A259F",
"! 	c #0C24A2",
"~ 	c #0C23A4",
"{ 	c #0A24A3",
"] 	c #0925A2",
"^ 	c #0A23A1",
"/ 	c #09229F",
"( 	c #09239E",
"_ 	c #0D23A3",
": 	c #0628A9",
"< 	c #0E22A5",
"[ 	c #032AA2",
"} 	c #012AA7",
"| 	c #0726A4",
"1 	c #0D24A0",
"2 	c #0924A7",
"3 	c #0A24A4",
"4 	c #0C249F",
"5 	c #0D249E",
"6 	c #0B259F",
"7 	c #0A25A2",
"8 	c #0726A1",
"9 	c #0527A1",
"0 	c #0727A2",
"a 	c #0B24A3",
"b 	c #1122A2",
"c 	c #3B1F71",
"d 	c #49137A",
"e 	c #2E1A8B",
"f 	c #0D269D",
"g 	c #0B239B",
"h 	c #0E249F",
"i 	c #0A24A7",
"j 	c #0B25A5",
"k 	c #0C25A3",
"l 	c #0926A7",
"m 	c #0726A8",
"n 	c #0726A7",
"o 	c #0826A8",
"p 	c #0927A1",
"q 	c #09279B",
"r 	c #08269F",
"s 	c #0925A3",
"t 	c #0A24A1",
"u 	c #0B24A1",
"v 	c #3A1D7B",
"w 	c #720E50",
"x 	c #301B6F",
"y 	c #461164",
"z 	c #2F1973",
"A 	c #192192",
"B 	c #0426AA",
"C 	c #0C25A1",
"D 	c #0C25A2",
"E 	c #11239E",
"F 	c #172298",
"G 	c #1F2292",
"H 	c #26218B",
"I 	c #23228D",
"J 	c #192295",
"K 	c #11239B",
"L 	c #0925A1",
"M 	c #0D25A2",
"N 	c #5E2569",
"O 	c #491A7A",
"P 	c #0A28A4",
"Q 	c #132496",
"R 	c #271D76",
"S 	c #3D1465",
"T 	c #1A21A1",
"U 	c #0E25A6",
"V 	c #0829A3",
"W 	c #17248C",
"X 	c #292182",
"Y 	c #462277",
"Z 	c #621D5E",
"` 	c #661C5B",
" .	c #631D5D",
"..	c #621F62",
"+.	c #6A215B",
"@.	c #72235E",
"#.	c #6D216D",
"$.	c #40217A",
"%.	c #1221A0",
"&.	c #0929A2",
"*.	c #0A289E",
"=.	c #1123A4",
"-.	c #0C23AA",
";.	c #082799",
">.	c #63307B",
",.	c #582479",
"'.	c #0A26A4",
").	c #0826AA",
"!.	c #241E80",
"~.	c #3D165A",
"{.	c #1F2296",
"].	c #3C1C8C",
"^.	c #651768",
"/.	c #56166B",
"(.	c #39187C",
"_.	c #251F8D",
":.	c #17239C",
"<.	c #1223A0",
"[.	c #0E24A4",
"}.	c #11249F",
"|.	c #17219E",
"1.	c #2D1F87",
"2.	c #61246C",
"3.	c #762D5A",
"4.	c #6D4061",
"5.	c #7B4D67",
"6.	c #473670",
"7.	c #0E2888",
"8.	c #0726A2",
"9.	c #0D25A3",
"0.	c #44227E",
"a.	c #6D2065",
"b.	c #1026A2",
"c.	c #0D27A7",
"d.	c #1125AE",
"e.	c #10269D",
"f.	c #301E6F",
"g.	c #6B0F31",
"h.	c #501962",
"i.	c #22208B",
"j.	c #0A28A5",
"k.	c #0629A1",
"l.	c #0A29A0",
"m.	c #0D29A4",
"n.	c #0B29A5",
"o.	c #0929A7",
"p.	c #0C29A2",
"q.	c #0F25A9",
"r.	c #0A2B9B",
"s.	c #20258F",
"t.	c #A87456",
"u.	c #EC8A2E",
"v.	c #E35C0F",
"w.	c #AA3824",
"x.	c #4D2851",
"y.	c #0E2495",
"z.	c #0724AB",
"A.	c #2E1C87",
"B.	c #78164E",
"C.	c #1325A2",
"D.	c #0F26A8",
"E.	c #1A23A2",
"F.	c #451F7D",
"G.	c #531962",
"H.	c #361874",
"I.	c #34196B",
"J.	c #1426A1",
"K.	c #1523A3",
"L.	c #1822A4",
"M.	c #0E27A8",
"N.	c #10279F",
"O.	c #11279E",
"P.	c #0D2A99",
"Q.	c #0F25B0",
"R.	c #062E9E",
"S.	c #424686",
"T.	c #F0C232",
"U.	c #E9AD23",
"V.	c #EA7B16",
"W.	c #C65122",
"X.	c #672E2D",
"Y.	c #1B237C",
"Z.	c #0825AA",
"`.	c #0B24A4",
" +	c #0C25A5",
".+	c #1A2293",
"++	c #771145",
"@+	c #232196",
"#+	c #18259D",
"$+	c #591A72",
"%+	c #461E71",
"&+	c #1625A7",
"*+	c #182797",
"=+	c #2D2173",
"-+	c #302178",
";+	c #0F29A7",
">+	c #1027AE",
",+	c #1128A1",
"'+	c #0C28AA",
")+	c #0F25AE",
"!+	c #0D28A2",
"~+	c #072D97",
"{+	c #1423AA",
"]+	c #0E299F",
"^+	c #58537A",
"/+	c #EFB621",
"(+	c #F6B944",
"_+	c #EE7C18",
":+	c #DB5920",
"<+	c #712E26",
"[+	c #1F247C",
"}+	c #0B24A5",
"|+	c #0C25A6",
"1+	c #0D25A5",
"2+	c #1721A7",
"3+	c #561468",
"4+	c #501963",
"5+	c #5A1B6D",
"6+	c #401C79",
"7+	c #0F2CA1",
"8+	c #1925A1",
"9+	c #1226B3",
"0+	c #29268C",
"a+	c #722852",
"b+	c #512B6D",
"c+	c #162E9D",
"d+	c #1026A4",
"e+	c #0E28A5",
"f+	c #0D2A9D",
"g+	c #0C27A8",
"h+	c #0A29A8",
"i+	c #1025AC",
"j+	c #092AA6",
"k+	c #303385",
"l+	c #D19442",
"m+	c #EA931F",
"n+	c #EE751C",
"o+	c #AC3C19",
"p+	c #432845",
"q+	c #152490",
"r+	c #0924AB",
"s+	c #0B25A6",
"t+	c #062AA7",
"u+	c #401686",
"v+	c #770F48",
"w+	c #431D68",
"x+	c #092CB4",
"y+	c #1A259E",
"z+	c #192C9E",
"A+	c #784873",
"B+	c #C2724F",
"C+	c #DE793E",
"D+	c #EA672B",
"E+	c #C85C44",
"F+	c #6B3E68",
"G+	c #252587",
"H+	c #0B26AE",
"I+	c #0A27AD",
"J+	c #0E27A3",
"K+	c #0E26AC",
"L+	c #072BA0",
"M+	c #1225AD",
"N+	c #5B3A6D",
"O+	c #BD694C",
"P+	c #CC6632",
"Q+	c #A93028",
"R+	c #371C79",
"S+	c #0925A9",
"T+	c #0A2AA3",
"U+	c #541B77",
"V+	c #710E42",
"W+	c #2F2382",
"X+	c #0D2AA7",
"Y+	c #1D26A4",
"Z+	c #935662",
"`+	c #EB7E29",
" @	c #F3BB70",
".@	c #F6A249",
"+@	c #E77126",
"@@	c #E25C25",
"#@	c #C14B26",
"$@	c #6B365C",
"%@	c #18259F",
"&@	c #0829AB",
"*@	c #0F289D",
"=@	c #0D26AE",
"-@	c #0D299A",
";@	c #0D25B3",
">@	c #0B2A9E",
",@	c #142A90",
"'@	c #21249E",
")@	c #70286D",
"!@	c #271F81",
"~@	c #0B269D",
"{@	c #0D24A8",
"]@	c #0A26A2",
"^@	c #1024A3",
"/@	c #0A27A8",
"(@	c #311FA0",
"_@	c #601A5F",
":@	c #401A65",
"<@	c #5F135A",
"[@	c #082EB1",
"}@	c #5D3B6C",
"|@	c #EE7130",
"1@	c #ED8929",
"2@	c #EA933F",
"3@	c #E48333",
"4@	c #F46E17",
"5@	c #EC5F1C",
"6@	c #CC4A21",
"7@	c #8B3732",
"8@	c #3C2C62",
"9@	c #082AAC",
"0@	c #0F26AA",
"a@	c #0D27A9",
"b@	c #0F26A7",
"c@	c #092AA5",
"d@	c #1326A6",
"e@	c #0B2CA0",
"f@	c #732669",
"g@	c #2E1B77",
"h@	c #0C269C",
"i@	c #0D23AA",
"j@	c #0828A2",
"k@	c #0E26A9",
"l@	c #1A2495",
"m@	c #681C6B",
"n@	c #2B1E8E",
"o@	c #202596",
"p@	c #611249",
"q@	c #39217C",
"r@	c #AB6554",
"s@	c #F17E28",
"t@	c #EE851D",
"u@	c #F67D26",
"v@	c #F77622",
"w@	c #F26F23",
"x@	c #E8641E",
"y@	c #D04D17",
"z@	c #953623",
"A@	c #5B2A45",
"B@	c #0C2BA3",
"C@	c #1126A7",
"D@	c #0E27A5",
"E@	c #1323AD",
"F@	c #0A2A9A",
"G@	c #75246E",
"H@	c #2A1F7E",
"I@	c #0B25A9",
"J@	c #0926A6",
"K@	c #0A27AC",
"L@	c #46247F",
"M@	c #551B69",
"N@	c #0C27AF",
"O@	c #0F28A9",
"P@	c #471966",
"Q@	c #671645",
"R@	c #CF6B37",
"S@	c #EB7F20",
"T@	c #EC841C",
"U@	c #E78933",
"V@	c #E97E2A",
"W@	c #F16F23",
"X@	c #EA6321",
"Y@	c #D94F17",
"Z@	c #A93C1D",
"`@	c #6D2D39",
" #	c #132A95",
".#	c #1226A1",
"+#	c #0D28A5",
"@#	c #0F26A9",
"##	c #182596",
"$#	c #762667",
"%#	c #1C208C",
"&#	c #0A26A7",
"*#	c #0F23A6",
"=#	c #18269A",
"-#	c #662574",
";#	c #1B2499",
">#	c #0C27A9",
",#	c #1227A3",
"'#	c #19259B",
")#	c #611344",
"!#	c #D45727",
"~#	c #F07328",
"{#	c #EB7F1E",
"]#	c #F2BB60",
"^#	c #EDA24B",
"/#	c #ED6E22",
"(#	c #ED6124",
"_#	c #DD4F1F",
":#	c #B53F25",
"<#	c #742A37",
"[#	c #142999",
"}#	c #1026A5",
"|#	c #0B29A6",
"1#	c #282193",
"2#	c #73245C",
"3#	c #0F24A6",
"4#	c #1023AB",
"5#	c #2D268A",
"6#	c #682472",
"7#	c #1127A2",
"8#	c #0D27A6",
"9#	c #1426A2",
"0#	c #0E28A9",
"a#	c #501E68",
"b#	c #B8331C",
"c#	c #F36830",
"d#	c #E87821",
"e#	c #E38B3A",
"f#	c #EC8132",
"g#	c #F36A1F",
"h#	c #EA6221",
"i#	c #DA5022",
"j#	c #AB382E",
"k#	c #79283F",
"l#	c #11289D",
"m#	c #0B28A9",
"n#	c #0B28A1",
"o#	c #452C91",
"p#	c #601655",
"q#	c #0728AA",
"r#	c #0D26A2",
"s#	c #0C26B3",
"t#	c #562E78",
"u#	c #471F74",
"v#	c #0D27AA",
"w#	c #1A2798",
"x#	c #9E2B4A",
"y#	c #D15023",
"z#	c #EC7022",
"A#	c #EC722A",
"B#	c #EC6F25",
"C#	c #EF6B28",
"D#	c #E7642B",
"E#	c #CB4C18",
"F#	c #953632",
"G#	c #7A2347",
"H#	c #1F269C",
"I#	c #1027A6",
"J#	c #0F28A6",
"K#	c #1026A3",
"L#	c #1328A0",
"M#	c #6F2967",
"N#	c #34197C",
"O#	c #0626A8",
"P#	c #052CA2",
"Q#	c #1123AE",
"R#	c #6F2F71",
"S#	c #1E2191",
"T#	c #0F28A8",
"U#	c #0F2BA1",
"V#	c #462590",
"W#	c #B01E1A",
"X#	c #E15C31",
"Y#	c #E96727",
"Z#	c #EF641A",
"`#	c #E75E1D",
" $	c #CE5425",
".$	c #A24330",
"+$	c #572F5D",
"@$	c #522367",
"#$	c #432889",
"$$	c #1926A0",
"%$	c #0F28A2",
"&$	c #41278C",
"*$	c #6B1C58",
"=$	c #0A289B",
"-$	c #1223A7",
";$	c #0A27AA",
">$	c #1E2196",
",$	c #8D4460",
"'$	c #3E3380",
")$	c #0F27A4",
"!$	c #1327A7",
"~$	c #062FAF",
"{$	c #81134E",
"]$	c #961F35",
"^$	c #A0483F",
"/$	c #B25345",
"($	c #A84B43",
"_$	c #833E4E",
":$	c #492B6F",
"<$	c #1328A2",
"[$	c #1B2597",
"}$	c #693472",
"|$	c #1C2696",
"1$	c #1A2597",
"2$	c #7D2461",
"3$	c #2B1D7D",
"4$	c #0C279C",
"5$	c #0C24AA",
"6$	c #44377C",
"7$	c #D67741",
"8$	c #C9673E",
"9$	c #1D2A98",
"0$	c #0D28A9",
"a$	c #1129A2",
"b$	c #292093",
"c$	c #7C144E",
"d$	c #3F1B76",
"e$	c #24278B",
"f$	c #222892",
"g$	c #1328A4",
"h$	c #082CA8",
"i$	c #0F2A9B",
"j$	c #642872",
"k$	c #3A238D",
"l$	c #1327A1",
"m$	c #0D29A5",
"n$	c #1126A2",
"o$	c #592883",
"p$	c #581851",
"q$	c #10269C",
"r$	c #1122A6",
"s$	c #07289F",
"t$	c #2C2681",
"u$	c #782D28",
"v$	c #602837",
"w$	c #17269A",
"x$	c #0F25AB",
"y$	c #1226A0",
"z$	c #0A2BAE",
"A$	c #4A1B75",
"B$	c #7A104E",
"C$	c #212594",
"D$	c #0D29A7",
"E$	c #0C28AE",
"F$	c #1626A0",
"G$	c #11299B",
"H$	c #0C28AF",
"I$	c #2B2385",
"J$	c #642278",
"K$	c #182697",
"L$	c #432585",
"M$	c #77174A",
"N$	c #242287",
"O$	c #0429AA",
"P$	c #0F24A1",
"Q$	c #0727AD",
"R$	c #0B299D",
"S$	c #701D4F",
"T$	c #2E207E",
"U$	c #1025AA",
"V$	c #1124AE",
"W$	c #16249F",
"X$	c #052CAB",
"Y$	c #0D29A0",
"Z$	c #5A1C61",
"`$	c #6C0F55",
" %	c #16279D",
".%	c #10299C",
"+%	c #1424AB",
"@%	c #13289F",
"#%	c #1525A3",
"$%	c #122B9A",
"%%	c #5A1C68",
"&%	c #2E1D8B",
"*%	c #362197",
"=%	c #891837",
"-%	c #2B1F7F",
";%	c #0B27A0",
">%	c #13239C",
",%	c #0627A9",
"'%	c #1123A2",
")%	c #0C26A0",
"!%	c #56186D",
"~%	c #4B1B7F",
"{%	c #0F23A8",
"]%	c #0B28A8",
"^%	c #1324A8",
"/%	c #1422B2",
"(%	c #1723A7",
"_%	c #751353",
":%	c #47176A",
"<%	c #13269E",
"[%	c #0B27B0",
"}%	c #0D28A4",
"|%	c #1624A3",
"1%	c #052EA1",
"2%	c #56186A",
"3%	c #6A175F",
"4%	c #82184B",
"5%	c #2E1C7F",
"6%	c #052AA3",
"7%	c #0329AA",
"8%	c #0E259E",
"9%	c #0F259B",
"0%	c #0A25AB",
"a%	c #0E23A8",
"b%	c #232191",
"c%	c #78165A",
"d%	c #152499",
"e%	c #0B25A8",
"f%	c #11269F",
"g%	c #0929AC",
"h%	c #1324A2",
"i%	c #1D2396",
"j%	c #75104E",
"k%	c #441774",
"l%	c #142798",
"m%	c #062BA9",
"n%	c #0F25AD",
"o%	c #68196C",
"p%	c #90113A",
"q%	c #351D76",
"r%	c #0B289E",
"s%	c #0C25A4",
"t%	c #0A26A5",
"u%	c #06299D",
"v%	c #0D24A5",
"w%	c #0E23A0",
"x%	c #0E23AA",
"y%	c #601766",
"z%	c #4F1C72",
"A%	c #1921A5",
"B%	c #0E28A3",
"C%	c #0E289F",
"D%	c #0E299C",
"E%	c #12279D",
"F%	c #0A28AD",
"G%	c #301E8E",
"H%	c #691054",
"I%	c #331D76",
"J%	c #0F26A4",
"K%	c #272092",
"L%	c #76195F",
"M%	c #930F33",
"N%	c #5E1B55",
"O%	c #132793",
"P%	c #0826AE",
"Q%	c #1325A1",
"R%	c #0927A3",
"S%	c #0A23AB",
"T%	c #0F239D",
"U%	c #0129AE",
"V%	c #182492",
"W%	c #731154",
"X%	c #5B1866",
"Y%	c #1723A4",
"Z%	c #082AA8",
"`%	c #062BA6",
" &	c #0929A8",
".&	c #0E26AB",
"+&	c #1323AE",
"@&	c #1024AE",
"#&	c #122896",
"$&	c #072E99",
"%&	c #2B2387",
"&&	c #670C3D",
"*&	c #631252",
"=&	c #902239",
"-&	c #5E1272",
";&	c #7275A3",
">&	c #B9B4C7",
",&	c #45488D",
"'&	c #0E279B",
")&	c #042AA1",
"!&	c #0228AB",
"~&	c #0E22A3",
"{&	c #1121AB",
"]&	c #0F21B2",
"^&	c #1024A6",
"/&	c #5E1852",
"(&	c #701752",
"_&	c #47197C",
":&	c #271D93",
"<&	c #1A219B",
"[&	c #10259F",
"}&	c #11269C",
"|&	c #1C22A9",
"1&	c #481D84",
"2&	c #6D2D60",
"3&	c #902655",
"4&	c #730745",
"5&	c #55103B",
"6&	c #38217D",
"7&	c #B6A2A1",
"8&	c #AFA490",
"9&	c #637E99",
"0&	c #082895",
"a&	c #0A25AA",
"b&	c #0724AD",
"c&	c #0C22A2",
"d&	c #07259F",
"e&	c #0D239D",
"f&	c #0C24AB",
"g&	c #331D7B",
"h&	c #601857",
"i&	c #751458",
"j&	c #7B1253",
"k&	c #7D1151",
"l&	c #800F4E",
"m&	c #821149",
"n&	c #851248",
"o&	c #74185B",
"p&	c #4F1972",
"q&	c #20258B",
"r&	c #10289C",
"s&	c #251F75",
"t&	c #491151",
"u&	c #502D51",
"v&	c #6B6B89",
"w&	c #293F85",
"x&	c #0B279D",
"y&	c #0B27A4",
"z&	c #0924A4",
"A&	c #0725A7",
"B&	c #0725A4",
"C&	c #0626A3",
"D&	c #0924A5",
"E&	c #0B25A4",
"F&	c #1A2195",
"G&	c #202092",
"H&	c #242092",
"I&	c #262092",
"J&	c #212194",
"K&	c #1B2396",
"L&	c #0F25A2",
"M&	c #0827A6",
"N&	c #0827A2",
"O&	c #0C279F",
"P&	c #0A279D",
"Q&	c #0E299A",
"R&	c #0C269E",
"S&	c #0A27A2",
"T&	c #0825A2",
"U&	c #0825A5",
"V&	c #0D24A6",
"W&	c #0C24A6",
"X&	c #0C24A5",
"Y&	c #0A25A6",
"Z&	c #0624A0",
"`&	c #0725A1",
"    . + @ # $ % & * = - ; . . . > , ' ) ! ~ { - ] . ^   / ( ( ",
"    . . _ : < [ } | 1 2 3 . . . 4 5 6 7 8 9 0 - 7 . ^   / ( ( ",
"    . a b c d e f g h i j k k k l m n o p q r - s . . . t ( ( ",
"    . u v w x y z A B > C D D D E F G H I J K L > . . . u ( ( ",
". . k M N O P Q R S T U V W X Y Z `  ...+.@.#.$.%.&.*.=.-.r ;.",
". . k M >.,.C '.).!.~.{.].^./.(._.:.<.[.}.|.1.2.3.4.5.6.7.' 8.",
". . k 9.0.a.b.c.d.e.f.g.h.i.j.k.l.m.n.o.p.q.r.s.t.u.v.w.x.y.z.",
". . k k A.B.C.D.E.F.G.H.I.J.K.L.M.N.N.O.P.Q.R.S.T.U.V.W.X.Y.Z.",
"`.`. + +.+++@+#+$+%+&+*+=+-+;+>+,+'+)+!+~+{+]+^+/+(+_+:+<+[+2 ",
"}+}+|+1+2+3+4+5+6+7+8+9+0+a+b+c+d+e+f+g+h+i+j+k+l+m+n+o+p+q+r+",
"|+|+|+s+t+u+v+w+x+y+z+A+B+C+D+E+F+G+H+I+J+K+L+M+N+O+P+Q+R+k S+",
"|+|+|+s+T+U+V+W+X+Y+Z+`+ @.@+@@@#@$@%@&@*@=@-@;@>@,@'@)@!@j ~@",
"{@]@^@/@(@_@:@<@[@}@|@1@2@3@4@5@6@7@8@9@0@a@N.b@c@d@e@f@g@D h@",
"i@j@k@l@m@n@o@p@q@r@s@t@u@v@w@x@y@z@A@B@C@D@D@D@n.E@F@G@H@k k ",
"I@J@K@L@M@N@O@P@Q@R@S@T@U@V@W@X@Y@Z@`@ #.#D@D@D@+#@###$#%#k k ",
"&#*#=#-#;#>#,#'#)#!#~#{#]#^#/#(#_#:#<#[#}#D@D@D@d+|#1#2#}.. . ",
"3#4#5#6#7#8#9#0#a#b#c#d#e#f#g#h#i#j#k#l#m#D@D@D@}#n#o#p#q#a a ",
"r#s#t#u#v#M.O@O@w#x#y#z#A#B#C#D#E#F#G#H#I#J#J#D@K#L#M#N#O#}+}+",
"P#Q#R#S#a@M.O@T#U#V#W#X#Y#Z#`# $.$+$@$#$$$J#J#D@%$&$*$=$-$}+}+",
";$>$,$'$)$M.M.M.!$~${$]$^$/$($_$:$<$[$}$|$J#D@J#1$2$3$4$5$|+|+",
"I@6$7$8$9$M.M.M.0$a$b$c$d$e$f$g$h$i$I#j$k$l$m$n$o$p$q$r$s$ + +",
"&#t$u$v$w$M.M.M.x$y$z$A$B$C$D$E$F$G$H$I$J$K$e+L$M$N$O$P$$ . . ",
"Q$R$S$T$U$M.M.M.V$W$X$Y$Z$`$ %.%+%@%#%$%%%&%*%=%-%l.;%>%,%. . ",
"'%)%!%~%{%|+|+|+]%d+^%/%(%_%:%<%[%}%|%1%2%3%4%5%6%7%8%9%r+. . ",
"0%a%b%c%d%s+e%|+f%g%c.K#h%i%j%k%l%m%n%P.o%p%q%*@r%s%t%u%v%. . ",
"}+w%x%y%z%A%)$}%)$B%C%D%E%F%G%H%I%J%K%L%M%N%O%P%Q%R%R%- ] . . ",
"S%T%U%V%W%X%Y%Z%`% &.&+&@&#&$&%&&&*&=&-&;&>&,&'&)&R%R%- ] . . ",
"!&~&{&]&^&/&(&_&:&<&[&&.}&|&1&2&3&4&5&6&7&8&9&0&a&R%R%- ] . . ",
"7 b&c&d&e&f&g&h&i&j&k&l&m&n&o&p&q&r&s&t&u&v&w&x&y&R%R%- ] . t ",
"z&A&B&C&D&A&E&'.F&G&H&I&J&K&L&|+M&N&O&O&P&Q&R&S&N&- - - - - T&",
"U&U&U&U&U&U&J@J@|+V&W&X&X&}+|+|+'.R%R%R%R%R%R%R%R%- - - - - - ",
"U&U&U&U&J@J@U&U&Y&Y&Y&Y&s+|+|+|+'.R%R%R%R%R%R%- - - - - - Z&`&"};
