/* XPM */
static char * heat wave_xpm[] = {
"34 32 970 2",
"  	c #DD0B0D",
". 	c #E5041C",
"+ 	c #E2051F",
"@ 	c #D80D13",
"# 	c #D70D10",
"$ 	c #E1061C",
"% 	c #DE0817",
"& 	c #DB0B0F",
"* 	c #E40818",
"= 	c #DE0C14",
"- 	c #D91B0B",
"; 	c #DD0C10",
"> 	c #DC791E",
", 	c #FAF910",
"' 	c #F2CD0B",
") 	c #C91310",
"! 	c #E03215",
"~ 	c #FEF213",
"{ 	c #F9E411",
"] 	c #CE1B0B",
"^ 	c #C92003",
"/ 	c #F1B521",
"( 	c #D88C19",
"_ 	c #CF2C1C",
": 	c #DC0A23",
"< 	c #E00A14",
"[ 	c #DE0918",
"} 	c #DF081B",
"| 	c #E0071A",
"1 	c #DE0818",
"2 	c #DC0816",
"3 	c #E00812",
"4 	c #DE0915",
"5 	c #DA0A16",
"6 	c #DB0918",
"7 	c #E3051E",
"8 	c #E1061B",
"9 	c #DF071A",
"0 	c #D80D0F",
"a 	c #DA4E14",
"b 	c #F6B92D",
"c 	c #E8A71C",
"d 	c #D51110",
"e 	c #DC2D0D",
"f 	c #FEEA1A",
"g 	c #FAE126",
"h 	c #CD1D06",
"i 	c #DD340C",
"j 	c #FCF417",
"k 	c #F1BD1D",
"l 	c #DC0912",
"m 	c #DB5414",
"n 	c #FCEF13",
"o 	c #FCDE27",
"p 	c #DC2D1B",
"q 	c #DF0C1C",
"r 	c #D3180B",
"s 	c #DC0B1D",
"t 	c #E0071D",
"u 	c #DF0819",
"v 	c #E30618",
"w 	c #D70F0C",
"x 	c #D50F10",
"y 	c #E2071E",
"z 	c #E6021F",
"A 	c #E3071B",
"B 	c #E50221",
"C 	c #D90E12",
"D 	c #D87013",
"E 	c #FEED19",
"F 	c #FCF011",
"G 	c #D8540F",
"H 	c #E00B14",
"I 	c #EEB616",
"J 	c #FCF319",
"K 	c #D14109",
"L 	c #D23C04",
"M 	c #FAF618",
"N 	c #E9941D",
"O 	c #E00F11",
"P 	c #E8A117",
"Q 	c #F4F80B",
"R 	c #DE8917",
"S 	c #DB100D",
"T 	c #D43407",
"U 	c #F7C02C",
"V 	c #DC7614",
"W 	c #D41110",
"X 	c #DC0917",
"Y 	c #DE0B19",
"Z 	c #DD0918",
"` 	c #DD0917",
" .	c #E3051C",
"..	c #D3100B",
"+.	c #D70B13",
"@.	c #E50521",
"#.	c #D8110E",
"$.	c #C74203",
"%.	c #E66420",
"&.	c #DC0D16",
"*.	c #DA0F11",
"=.	c #E38A19",
"-.	c #FDF70E",
";.	c #F4C616",
">.	c #C91A0C",
",.	c #D76D0C",
"'.	c #FEEF0D",
").	c #D16312",
"!.	c #D33E0A",
"~.	c #FFED23",
"{.	c #E06F13",
"].	c #CB2903",
"^.	c #F8E51C",
"/.	c #F6D220",
"(.	c #CB250C",
"_.	c #D2230A",
":.	c #F5BC1A",
"<.	c #F7F90A",
"[.	c #FBE01B",
"}.	c #E2391B",
"|.	c #DA0A15",
"1.	c #DB0B16",
"2.	c #DC0A16",
"3.	c #D50E10",
"4.	c #E20621",
"5.	c #E70521",
"6.	c #D03B0A",
"7.	c #F6D11D",
"8.	c #FBF017",
"9.	c #EAA019",
"0.	c #D91C14",
"a.	c #D7180E",
"b.	c #EBA21D",
"c.	c #FCF214",
"d.	c #DA7513",
"e.	c #D32206",
"f.	c #FFCD31",
"g.	c #ED7018",
"h.	c #DD250E",
"i.	c #EDB036",
"j.	c #DF3B12",
"k.	c #DD6615",
"l.	c #FEF418",
"m.	c #E25E14",
"n.	c #CD1D0B",
"o.	c #EFA513",
"p.	c #FBF50E",
"q.	c #F8D820",
"r.	c #D74A0E",
"s.	c #DA0B13",
"t.	c #DB0D14",
"u.	c #DB0B15",
"v.	c #E5061C",
"w.	c #D50D12",
"x.	c #DC0820",
"y.	c #E00521",
"z.	c #D73212",
"A.	c #EDA820",
"B.	c #F3F713",
"C.	c #EEFC0A",
"D.	c #F0BD14",
"E.	c #D8330A",
"F.	c #D4240F",
"G.	c #EFC213",
"H.	c #FAC722",
"I.	c #E01413",
"J.	c #CE270B",
"K.	c #C12C04",
"L.	c #D63B10",
"M.	c #C34007",
"N.	c #D01C03",
"O.	c #D73A11",
"P.	c #E87C1E",
"Q.	c #CD2004",
"R.	c #E98B12",
"S.	c #F6F70F",
"T.	c #EFC818",
"U.	c #D23312",
"V.	c #DD0922",
"W.	c #CE240F",
"X.	c #EA8422",
"Y.	c #EB8922",
"Z.	c #CA1807",
"`.	c #E0081C",
" +	c #DE0715",
".+	c #DD071D",
"++	c #D70919",
"@+	c #D30E14",
"#+	c #D60F15",
"$+	c #E1071A",
"%+	c #DB0F12",
"&+	c #DE4C13",
"*+	c #F7BF20",
"=+	c #FBF612",
"-+	c #F8CD22",
";+	c #D6460F",
">+	c #D92517",
",+	c #D23910",
"'+	c #CF420B",
")+	c #EBA515",
"!+	c #F7E418",
"~+	c #FEE913",
"{+	c #FEEC19",
"]+	c #FBD524",
"^+	c #E58C22",
"/+	c #D52611",
"(+	c #E02B24",
"_+	c #FCDA2F",
":+	c #E9A916",
"<+	c #DE1F13",
"[+	c #D1190A",
"}+	c #D56D16",
"|+	c #F9D719",
"1+	c #FAF909",
"2+	c #FEEF17",
"3+	c #DF621D",
"4+	c #D90F16",
"5+	c #DC0C12",
"6+	c #D30B1B",
"7+	c #D70C14",
"8+	c #DB5815",
"9+	c #EEA21F",
"0+	c #E05513",
"a+	c #D51B0B",
"b+	c #DD0D10",
"c+	c #DC170E",
"d+	c #DD7715",
"e+	c #FADB24",
"f+	c #FAC224",
"g+	c #E0160F",
"h+	c #DA571C",
"i+	c #FDDD22",
"j+	c #F4FD05",
"k+	c #F6FD0B",
"l+	c #FDF514",
"m+	c #FAFC09",
"n+	c #EDFF01",
"o+	c #F4F40E",
"p+	c #FBCB20",
"q+	c #CF4207",
"r+	c #D53A1C",
"s+	c #C9200A",
"t+	c #E74517",
"u+	c #F7C113",
"v+	c #FDEF15",
"w+	c #FEF40C",
"x+	c #F6E60D",
"y+	c #E4A417",
"z+	c #DE4322",
"A+	c #DA0B17",
"B+	c #DC0B11",
"C+	c #DD0A17",
"D+	c #D41906",
"E+	c #F8C221",
"F+	c #EEFD05",
"G+	c #F4F60E",
"H+	c #FBD620",
"I+	c #E6931D",
"J+	c #DB4812",
"K+	c #D31909",
"L+	c #D82509",
"M+	c #DB3B14",
"N+	c #CF410D",
"O+	c #F4EA15",
"P+	c #FEF70D",
"Q+	c #F9FD05",
"R+	c #FAFC06",
"S+	c #FEF709",
"T+	c #FEFC02",
"U+	c #FBFD04",
"V+	c #F9FC08",
"W+	c #FCFD0D",
"X+	c #F5D51B",
"Y+	c #E46717",
"Z+	c #F7EE17",
"`+	c #F3ED17",
" @	c #ECB116",
".@	c #E45A22",
"+@	c #D52112",
"@@	c #D50E1A",
"#@	c #E1091E",
"$@	c #E10913",
"%@	c #DC0A0F",
"&@	c #E10612",
"*@	c #DE2C12",
"=@	c #EFA032",
"-@	c #F2CB1D",
";@	c #FCE51F",
">@	c #FEF11C",
",@	c #FBFA0F",
"'@	c #F2F60A",
")@	c #F7D11C",
"!@	c #E3661B",
"~@	c #D5150C",
"{@	c #F0A617",
"]@	c #F4FE06",
"^@	c #FFF80A",
"/@	c #F8FD06",
"(@	c #F3FE09",
"_@	c #F9FE0C",
":@	c #FBFE08",
"<@	c #FFF90E",
"[@	c #FFF70D",
"}@	c #FFFA06",
"|@	c #FFF906",
"1@	c #E27F13",
"2@	c #DC2F0E",
"3@	c #E56A1C",
"4@	c #DC2B14",
"5@	c #D9120A",
"6@	c #CE1209",
"7@	c #CE170D",
"8@	c #D42D0F",
"9@	c #D84E0E",
"0@	c #E86117",
"a@	c #D3230D",
"b@	c #E1081E",
"c@	c #D10B14",
"d@	c #D40E15",
"e@	c #D51312",
"f@	c #D6250C",
"g@	c #D14407",
"h@	c #DC6917",
"i@	c #EB8E15",
"j@	c #F4B21A",
"k@	c #E27521",
"l@	c #C9280A",
"m@	c #F9E813",
"n@	c #FEF611",
"o@	c #FFF903",
"p@	c #FCFF01",
"q@	c #FDFD06",
"r@	c #FFF907",
"s@	c #FFFB02",
"t@	c #FFFE02",
"u@	c #FDFE00",
"v@	c #FDFD03",
"w@	c #F1C61A",
"x@	c #CF1809",
"y@	c #DD2E16",
"z@	c #E25A16",
"A@	c #E58817",
"B@	c #EEB210",
"C@	c #F8CF20",
"D@	c #FDE517",
"E@	c #FFF40A",
"F@	c #FFEE1E",
"G@	c #DA7011",
"H@	c #DB0C12",
"I@	c #D01216",
"J@	c #DA0C18",
"K@	c #CB1514",
"L@	c #CD160C",
"M@	c #DC0E0C",
"N@	c #D50F18",
"O@	c #D2150B",
"P@	c #D8100D",
"Q@	c #DB0925",
"R@	c #D9360B",
"S@	c #FEF609",
"T@	c #FFFA05",
"U@	c #FEFE02",
"V@	c #FDFF00",
"W@	c #FFFB05",
"X@	c #FFFA04",
"Y@	c #FFFD00",
"Z@	c #FFFE00",
"`@	c #FFFF00",
" #	c #FEFF00",
".#	c #F8FF05",
"+#	c #F9DE1A",
"@#	c #D0230B",
"##	c #F3A213",
"$#	c #FEF40E",
"%#	c #FEF60E",
"&#	c #FFF50E",
"*#	c #FDF70D",
"=#	c #FAFA0D",
"-#	c #F9FB0F",
";#	c #F0B01D",
">#	c #D50E09",
",#	c #D64617",
"'#	c #F3D118",
")#	c #F4D112",
"!#	c #F5D511",
"~#	c #F1DA13",
"{#	c #F6D11E",
"]#	c #F4D21B",
"^#	c #F3D90E",
"/#	c #F7CB1C",
"(#	c #D75013",
"_#	c #D8380A",
":#	c #FCF908",
"<#	c #FDFD01",
"[#	c #FFFD01",
"}#	c #FFFE01",
"|#	c #FFFF01",
"1#	c #FEFD08",
"2#	c #FAD71B",
"3#	c #C72406",
"4#	c #D32E16",
"5#	c #DE3A0D",
"6#	c #D83F09",
"7#	c #D34008",
"8#	c #D73D09",
"9#	c #D93C0B",
"0#	c #DC3A0E",
"a#	c #DB380F",
"b#	c #E42D1D",
"c#	c #E1051B",
"d#	c #DE6B26",
"e#	c #F4FA0C",
"f#	c #FBF90F",
"g#	c #FFF210",
"h#	c #FEF708",
"i#	c #FAF318",
"j#	c #F7E710",
"k#	c #F1CB14",
"l#	c #ECA21B",
"m#	c #DC3E16",
"n#	c #DF1A17",
"o#	c #F8E011",
"p#	c #FAFA05",
"q#	c #FFFB03",
"r#	c #FCFF00",
"s#	c #FFFE03",
"t#	c #FFFD05",
"u#	c #FCFB06",
"v#	c #EDBC23",
"w#	c #C71F0A",
"x#	c #E45E28",
"y#	c #E95714",
"z#	c #DB390E",
"A#	c #D81D1A",
"B#	c #D51019",
"C#	c #D70D13",
"D#	c #DC0C10",
"E#	c #E00B0D",
"F#	c #E10A11",
"G#	c #E2071F",
"H#	c #E77C22",
"I#	c #F3D310",
"J#	c #F0B10B",
"K#	c #DE8B17",
"L#	c #D06817",
"M#	c #D53917",
"N#	c #E11E0F",
"O#	c #D9120E",
"P#	c #C72107",
"Q#	c #D6350C",
"R#	c #D21415",
"S#	c #E59020",
"T#	c #FDF115",
"U#	c #F8FB03",
"V#	c #FDFE02",
"W#	c #FDFA03",
"X#	c #FEFA09",
"Y#	c #FEF50D",
"Z#	c #DF6D14",
"`#	c #D2200E",
" $	c #F7BD29",
".$	c #FDF11A",
"+$	c #F8F417",
"@$	c #FAE016",
"#$	c #F6C90E",
"$$	c #E7A20E",
"%$	c #E27C1A",
"&$	c #DB500F",
"*$	c #CF380C",
"=$	c #CC1D07",
"-$	c #DD1A0F",
";$	c #D11610",
">$	c #DC0A18",
",$	c #CE0D15",
"'$	c #D60E13",
")$	c #D51108",
"!$	c #D43908",
"~$	c #E07E13",
"{$	c #EFCE15",
"]$	c #FCDC1F",
"^$	c #CD390B",
"/$	c #D4290C",
"($	c #F7D019",
"_$	c #F7FD03",
":$	c #FEFD03",
"<$	c #FEFE03",
"[$	c #FCF806",
"}$	c #FFF80E",
"|$	c #ECBF12",
"1$	c #DB121D",
"2$	c #DE1818",
"3$	c #C6280D",
"4$	c #E25C0C",
"5$	c #EEA81E",
"6$	c #FBE813",
"7$	c #FCF70B",
"8$	c #FEF808",
"9$	c #FEF908",
"0$	c #FFF809",
"a$	c #FEE91A",
"b$	c #CD5B14",
"c$	c #DA0910",
"d$	c #DA0E17",
"e$	c #CE2A0F",
"f$	c #D96D13",
"g$	c #ECB721",
"h$	c #F9EA14",
"i$	c #FDF610",
"j$	c #FAD81F",
"k$	c #DF6C1E",
"l$	c #DA1810",
"m$	c #DF0D14",
"n$	c #D33E0D",
"o$	c #F1D01A",
"p$	c #F9F80C",
"q$	c #FEFB06",
"r$	c #FCFD07",
"s$	c #FDFB05",
"t$	c #F8FE0A",
"u$	c #F9F217",
"v$	c #F1AA19",
"w$	c #CA2E10",
"x$	c #D82F13",
"y$	c #F6CB1C",
"z$	c #D9860D",
"A$	c #D6110D",
"B$	c #D52E07",
"C$	c #E16E18",
"D$	c #F6BB1D",
"E$	c #FFE813",
"F$	c #FEF907",
"G$	c #FEF210",
"H$	c #C46312",
"I$	c #D21B16",
"J$	c #D75C13",
"K$	c #F09E23",
"L$	c #FAE112",
"M$	c #FBF40B",
"N$	c #FEEF10",
"O$	c #FDE612",
"P$	c #E49116",
"Q$	c #D52810",
"R$	c #C82206",
"S$	c #E19417",
"T$	c #E49414",
"U$	c #D31514",
"V$	c #DE191B",
"W$	c #E96D16",
"X$	c #F5B61E",
"Y$	c #F6D21E",
"Z$	c #F8C92E",
"`$	c #EEB220",
" %	c #D96413",
".%	c #D91609",
"+%	c #D21A0C",
"@%	c #D62611",
"#%	c #EEAB25",
"$%	c #FFEC1E",
"%%	c #F7C720",
"&%	c #D06611",
"*%	c #CA1C0E",
"=%	c #D40F12",
"-%	c #D1140A",
";%	c #D43E09",
">%	c #DD8513",
",%	c #F7BE2A",
"'%	c #CF4711",
")%	c #EA5A1F",
"!%	c #F8F808",
"~%	c #F9FD02",
"{%	c #F6F413",
"]%	c #F2A71C",
"^%	c #D54008",
"/%	c #CC1514",
"(%	c #DD2215",
"_%	c #F6A61C",
":%	c #FBF313",
"<%	c #E88B15",
"[%	c #D51C0C",
"}%	c #D31509",
"|%	c #D7120D",
"1%	c #D01F01",
"2%	c #DD140B",
"3%	c #BE1D05",
"4%	c #CD160A",
"5%	c #E32F0F",
"6%	c #F8BE35",
"7%	c #CF5711",
"8%	c #CE220A",
"9%	c #EB9215",
"0%	c #FBF40F",
"a%	c #FCF21D",
"b%	c #F6A938",
"c%	c #D4430B",
"d%	c #D11406",
"e%	c #DD0C14",
"f%	c #DF0C19",
"g%	c #D91317",
"h%	c #D5140D",
"i%	c #CF460B",
"j%	c #F9F512",
"k%	c #FEF01B",
"l%	c #F1CA1B",
"m%	c #CE610D",
"n%	c #D51217",
"o%	c #DB0D20",
"p%	c #D83811",
"q%	c #F4CB0F",
"r%	c #EBAC15",
"s%	c #D6190C",
"t%	c #EB6823",
"u%	c #FBE51D",
"v%	c #D43B0C",
"w%	c #E53E20",
"x%	c #DC6209",
"y%	c #D71013",
"z%	c #E87229",
"A%	c #E5751E",
"B%	c #CF2506",
"C%	c #F7D118",
"D%	c #F8DB17",
"E%	c #DF370B",
"F%	c #DC7817",
"G%	c #FDE912",
"H%	c #F8F909",
"I%	c #FAE813",
"J%	c #EE931B",
"K%	c #D8290E",
"L%	c #D80E16",
"M%	c #D8081B",
"N%	c #E00617",
"O%	c #D8160A",
"P%	c #F8BE24",
"Q%	c #D97716",
"R%	c #DC141B",
"S%	c #DE0821",
"T%	c #CE1316",
"U%	c #D65514",
"V%	c #FCD71B",
"W%	c #F7F90D",
"X%	c #F2BF1D",
"Y%	c #D02709",
"Z%	c #D42D0E",
"`%	c #FAD91E",
" &	c #F7C91D",
".&	c #C81806",
"+&	c #EBA321",
"@&	c #FBDF0F",
"#&	c #C3160F",
"$&	c #EFAD19",
"%&	c #FAD41A",
"&&	c #D01A13",
"*&	c #DA660D",
"=&	c #FEF012",
"-&	c #F7C723",
";&	c #CE2B0F",
">&	c #D80C15",
",&	c #DC590A",
"'&	c #FAD913",
")&	c #FCF80C",
"!&	c #F6FB09",
"~&	c #F5E316",
"{&	c #E07917",
"]&	c #D81714",
"^&	c #DE0814",
"/&	c #E20426",
"(&	c #D21F09",
"_&	c #CD1408",
":&	c #E5061F",
"<&	c #DD130B",
"[&	c #E1760F",
"}&	c #FCE719",
"|&	c #F6FB08",
"1&	c #F8CB2D",
"2&	c #D23510",
"3&	c #DF1011",
"4&	c #EB9815",
"5&	c #F2F90F",
"6&	c #E47316",
"7&	c #D3110D",
"8&	c #F8CB10",
"9&	c #FFDF19",
"0&	c #D51013",
"a&	c #E68510",
"b&	c #F9F714",
"c&	c #DA570C",
"d&	c #D41614",
"e&	c #F3B51C",
"f&	c #F6FC0C",
"g&	c #EFB612",
"h&	c #D91C0C",
"i&	c #DE0A19",
"j&	c #D23D09",
"k&	c #F7C330",
"l&	c #F4F80C",
"m&	c #F7FB07",
"n&	c #FFE324",
"o&	c #D54E15",
"p&	c #DA0A12",
"q&	c #D50B24",
"r&	c #DD0B15",
"s&	c #E40419",
"t&	c #D51B13",
"u&	c #E69513",
"v&	c #FCF111",
"w&	c #FAFB04",
"x&	c #FAE017",
"y&	c #D4490D",
"z&	c #D60F0E",
"A&	c #D8450B",
"B&	c #FDED10",
"C&	c #F7EA15",
"D&	c #D33009",
"E&	c #D31B11",
"F&	c #FEEA0B",
"G&	c #FEE20E",
"H&	c #CE0E0D",
"I&	c #DE5B16",
"J&	c #F8F90F",
"K&	c #EEA312",
"L&	c #DD0C1D",
"M&	c #D74410",
"N&	c #FAEA13",
"O&	c #FCF711",
"P&	c #E89223",
"Q&	c #D41509",
"R&	c #DB0E03",
"S&	c #D4280D",
"T&	c #EEAE24",
"U&	c #F7F60D",
"V&	c #F7C825",
"W&	c #CE1909",
"X&	c #D40C14",
"Y&	c #E4041B",
"Z&	c #D8230B",
"`&	c #EDB121",
" *	c #F5F50C",
".*	c #F9FB06",
"+*	c #FBEF0E",
"@*	c #E15B13",
"#*	c #D41215",
"$*	c #CD1D0D",
"%*	c #EFBA17",
"&*	c #FFF80B",
"**	c #EEB81A",
"=*	c #D7100E",
"-*	c #DC3812",
";*	c #FEF30B",
">*	c #FEE10B",
",*	c #D30D0F",
"'*	c #D9390C",
")*	c #F6F610",
"!*	c #FEDE1B",
"~*	c #CB2D08",
"{*	c #D60F12",
"]*	c #EA931A",
"^*	c #FBF60F",
"/*	c #F6F018",
"(*	c #E1810D",
"_*	c #D61106",
":*	c #DF0A14",
"<*	c #CC1E0F",
"[*	c #EB8E19",
"}*	c #D9621F",
"|*	c #D3120A",
"1*	c #E0090B",
"2*	c #E50515",
"3*	c #CC3C0A",
"4*	c #FAE41C",
"5*	c #F3FB08",
"6*	c #F9F112",
"7*	c #DF810C",
"8*	c #D20F15",
"9*	c #E30526",
"0*	c #D76A0D",
"a*	c #FBF70D",
"b*	c #FDF617",
"c*	c #DA6511",
"d*	c #E4071B",
"e*	c #DA6618",
"f*	c #FFF806",
"g*	c #FDDF0B",
"h*	c #D41A04",
"i*	c #FFF20D",
"j*	c #D87410",
"k*	c #DD0C18",
"l*	c #D6280D",
"m*	c #F8DA21",
"n*	c #EFFE04",
"o*	c #FCEB18",
"p*	c #DF5910",
"q*	c #D60E0D",
"r*	c #E50A1C",
"s*	c #E1091A",
"t*	c #D71209",
"u*	c #D60D13",
"v*	c #D40D19",
"w*	c #E1032E",
"x*	c #D90C16",
"y*	c #E16F11",
"z*	c #FCE81B",
"A*	c #E6A00E",
"B*	c #D01410",
"C*	c #D70D14",
"D*	c #D4240E",
"E*	c #F7D017",
"F*	c #FAFD06",
"G*	c #FADF1C",
"H*	c #D72407",
"I*	c #E30421",
"J*	c #E09607",
"K*	c #FFFC06",
"L*	c #FEDC0D",
"M*	c #D80C18",
"N*	c #D50C0A",
"O*	c #F6CA1A",
"P*	c #FFF604",
"Q*	c #F1BC13",
"R*	c #D21507",
"S*	c #DB0B17",
"T*	c #E27613",
"U*	c #FCF60F",
"V*	c #FAFA07",
"W*	c #FAE315",
"X*	c #DB4411",
"Y*	c #E70718",
"Z*	c #D80B1C",
"`*	c #D90E0B",
" =	c #E60226",
".=	c #E8031D",
"+=	c #D60C19",
"@=	c #D70D11",
"#=	c #DB0E08",
"$=	c #E6602A",
"%=	c #D01B14",
"&=	c #DD0724",
"*=	c #D40F19",
"==	c #E08C0C",
"-=	c #FFF30E",
";=	c #E2A40E",
">=	c #DD0C0D",
",=	c #DF0A1E",
"'=	c #E4BC11",
")=	c #FEFC0B",
"!=	c #FEDD14",
"~=	c #DA0A19",
"{=	c #DD0E10",
"]=	c #E59F1C",
"^=	c #FFF905",
"/=	c #FBED15",
"(=	c #D8360E",
"_=	c #D02008",
":=	c #F9BF21",
"<=	c #F5FD04",
"[=	c #F7FD05",
"}=	c #FAC422",
"|=	c #D0210A",
"1=	c #DD0916",
"2=	c #E00621",
"3=	c #DE0813",
"4=	c #E20417",
"5=	c #D60B15",
"6=	c #DC0B15",
"7=	c #F00115",
"8=	c #E50516",
"9=	c #DB0C0E",
"0=	c #DA0A1D",
"a=	c #C73D0F",
"b=	c #FCDF19",
"c=	c #FEF70B",
"d=	c #FCF409",
"e=	c #DA4E0B",
"f=	c #DF0814",
"g=	c #D21A0F",
"h=	c #F8D51A",
"i=	c #FEF813",
"j=	c #FCDD1A",
"k=	c #E40614",
"l=	c #D5110D",
"m=	c #E60515",
"n=	c #FEFB12",
"o=	c #FAFD0A",
"p=	c #EB8115",
"q=	c #E80616",
"r=	c #D80924",
"s=	c #D0590E",
"t=	c #FDF00E",
"u=	c #FBEB17",
"v=	c #E66512",
"w=	c #CB1119",
"x=	c #E4051A",
"y=	c #D80B19",
"z=	c #CF0F1E",
"A=	c #C3151B",
"B=	c #D90B17",
"C=	c #D2121D",
"D=	c #E10D0F",
"E=	c #EDA31C",
"F=	c #FBF707",
"G=	c #EBFE08",
"H=	c #EEDB0E",
"I=	c #CA1C14",
"J=	c #D80A20",
"K=	c #CA2E0B",
"L=	c #FFEE0C",
"M=	c #FBE109",
"N=	c #D70D12",
"O=	c #D30E1C",
"P=	c #F1DC13",
"Q=	c #FBFB07",
"R=	c #F6C91F",
"S=	c #CD1C07",
"T=	c #DC0A1E",
"U=	c #D11805",
"V=	c #EB9321",
"W=	c #D75C0D",
"X=	c #DB0C13",
"Y=	c #E6032A",
"Z=	c #DB0A17",
"`=	c #DF090F",
" -	c #D40D18",
".-	c #DD0718",
"+-	c #D30924",
"@-	c #B81926",
"#-	c #CA1020",
"$-	c #D30E1A",
"%-	c #DB0C14",
"&-	c #C71518",
"*-	c #BF6018",
"=-	c #EED419",
"--	c #F4F41F",
";-	c #EA831B",
">-	c #E20614",
",-	c #E20819",
"'-	c #DB4C0C",
")-	c #FFF71B",
"!-	c #FEF70F",
"~-	c #FEDF0F",
"{-	c #D01113",
"]-	c #D20C29",
"^-	c #DBC836",
"/-	c #F3F91D",
"(-	c #F8ED1B",
"_-	c #CF4F0F",
":-	c #DF0612",
"<-	c #EB0322",
"[-	c #D80B1E",
"}-	c #D50C13",
"|-	c #E20724",
"1-	c #CD1114",
"2-	c #D70B1B",
"3-	c #C40D1F",
"4-	c #D80B1D",
"5-	c #E43013",
"6-	c #D60C16",
"7-	c #DA0E10",
"8-	c #E37415",
"9-	c #F7F219",
"0-	c #F9F908",
"a-	c #F9D814",
"b-	c #BD1708",
"c-	c #C50D19",
"d-	c #C4472D",
"e-	c #D50F17",
"f-	c #CD101F",
"g-	c #E40815",
"h-	c #E70615",
"i-	c #D70F18",
"j-	c #C91420",
"k-	c #B41A20",
"  . + @ # $ % & * = - ; > , ' ) ! ~ { ] ^ / ( _ : < [ } | | | | 1 2 ",
"3 4 5 6 7 8 9 0 a b c d e f g h i j k l m n o p q r s t u u u u % 2 ",
"v w x y z A B C D E F G H I J K L M N O P Q R S T U V W X Y Z Z ` 2 ",
" ...+.@.#.$.%.&.*.=.-.;.>.,.'.).!.~.{.].^./.(._.:.<.[.}.|.|.1.1.2.` ",
"$ 3.4.5.6.7.8.9.0.a.b.c.d.e.f.g.h.i.j.k.l.m.n.o.p.q.r.# s.t.s.s.u.` ",
"v.w.x.y.z.A.B.C.D.E.F.G.H.I.J.K.L.M.N.O.P.Q.R.S.T.U.V.W.X.Y.Z.`. +2 ",
".+++@+#+$+%+&+*+=+-+;+>+,+'+)+!+~+{+]+^+/+(+_+:+<+[+}+|+1+2+3+4+5+2 ",
"6+7+8+9+0+a+b+c+d+e+f+g+h+i+j+k+l+m+n+o+p+q+r+s+t+u+v+w+x+y+z+A+B+2 ",
"C+D+E+F+G+H+I+J+K+L+M+N+O+P+Q+R+S+T+U+V+W+X+J.Y+Z+`+ @.@+@@@#@$@%@2 ",
"&@*@=@-@;@>@,@'@)@!@~@{@]@^@/@(@_@:@<@[@}@|@1@2@3@4@5@6@7@8@9@0@a@2 ",
"b@c@d@e@f@g@h@i@j@k@l@m@n@o@p@q@r@s@t@p@u@v@w@x@y@z@A@B@C@D@E@F@G@H@",
"B+I@J@K@L@M@N@O@P@Q@R@S@T@U@V@W@X@Y@Z@`@ #.#+#@###~ $#%#&#*#=#-#;#>#",
",#'#)#!#~#{#]#^#/#(#_#:#<#[#}#}#[#Z@Z@Z@|#1#2#3#4#5#6#7#8#9#0#a#b#c#",
"d#e#f#g#h#i#j#k#l#m#n#o#p#v@q#r#V@Z@}#s#t#u#v#w#x#y#z#A#B#C#D#E#F#G#",
"H#I#J#K#L#M#N#O#P#Q#R#S#T#U#q#V#r# #t@W#X#Y#Z#`# $.$+$@$#$$$%$&$*$=$",
"-$;$>$,$'$)$!$~${$]$^$/$($_$:$t#V@ #<$[$}$|$1$2$3$4$5$6$7$8$9$0$a$b$",
"c$q d$e$f$g$h$i$j$k$l$m$n$o$p$q$r$s$t$u$v$w$x$y$z$0.A$B$C$D$E$F$G$H$",
"I$J$K$L$M$N$O$P$Q$R$S$T$U$V$W$X$Y$Z$`$ %.%+%@%#%$%%%&%*%=%-%;%>%,%'%",
")%B.!%~%{%]%^%/%(%_%:%<%[%O.}%|%1%2%3%4%5%6%7%8%9%0%a%b%c%d%e%f%g%h%",
"i%j%k%l%m%n%o%p%q%-.r%s%t%u%v%w%x%y%z%A%B%C%D%E%n%F%G%H%I%J%K%L%M%N%",
"O%P%Q%R%S%T%U%V%W%X%Y%Z%`% &.&+&@&#&$&%&&&*&=&-&;&>&,&'&)&!&~&{&]&^&",
"/&(&_&:&<&[&}&|&1&2&3&4&5&6&7&8&9&0&a&b&c&d&e&f&g&h&i&j&k&l&m&n&o&p&",
"q&r&s&t&u&v&w&x&y&z&A&B&C&D&E&F&G&H&I&J&K&L&M&N&O&P&Q&R&S&T&U&V&W&2 ",
"X&Y&Z&`& *.*+*@*#*$*%*&***=*-*;*>*,*'*)*!*~*{*]*^*/*(*_*:*<*[*}*|*2 ",
"1*2*3*4*5*6*7*8*9*0*a*b*c*d*e*f*g*7+h*h$i*j*k*l*m*n*o*p*q*r*s*t*u*2 ",
"v*w*x*y*z*A*B*C*D*E*F*G*H*I*J*K*L*M*N*O*P*Q*R*S*T*U*V*W*X*Y*Z*`* =2 ",
".=+=@=#=$=%=&=*===-=w&;=>=,='=)=!=~={=]=^=/=(=u._=:=<=[=}=|=1=2=3=2 ",
"4=5=6=7=8=9=0=a=b=c=d=e=f=g=h=i=j=k=l=m=n=o=p=q=r=s=t=u=v=w=x=m=y=2 ",
"z=m=A=B=7+C=D=E=F=G=H=I=J=K=L=^=M=N=O=m=P=Q=R=S=T=U=V=W=X=Y=Z=`= -.-",
"+-m=@-#-$-%-&-*-=---;->-,-'-)-!-~-{-]-m=^-/-(-_-:-<-[-}-|-<-1-2-3-4-",
"m=m=m=m=m=m=m=m=m=m=5-6-7-8-9-0-a-b-c-m=m=m=m=d-e-f-g-h-i-^&m=m=m=j-",
"m=m=m=m=m=m=m=m=m=m=m=m=m=m=m=m=m=m=m=m=m=m=m=m=m=m=m=m=m=m=m=m=m=k-"};
