/* XPM */
static char * heat_xpm[] = {
"32 32 2 1",
" 	c None",
".	c #FBFE00",
"                                ",
"                                ",
"                                ",
"         .............          ",
"        ..           ..         ",
"       ..             ..        ",
"      ..   .........   ..       ",
"     ..   ...........   ..      ",
"    ..  ....       ....  ..     ",
"   ..   ..           ..   ..    ",
"   .   ..   .......   ..   .    ",
"   .  ...  .........  ...  .    ",
"   .  ..  ...     ...  ..  .    ",
"   .  ..  ..       ..  ..  .    ",
"   .  ..  ..  ...  ..  ..  .    ",
"   .  ..  ..  ...  ..  ..  .    ",
"   .  ..  ..  ...  ..  ..  .    ",
"   .  ..  ..       ..  ..  .    ",
"   .  ..  ...     ...  ..  .    ",
"   .  ...  .........  ...  .    ",
"   .   ..   .......   ..   .    ",
"    .   ..           ..   ..    ",
"     .  ....       ....  ..     ",
"     ..   ...........   ..      ",
"      ..   .........   ..       ",
"       ..             ..        ",
"        ..           ..         ",
"         .............          ",
"                                ",
"                                ",
"                                ",
"                                "};
