/* XPM */
static char * heat wave 3_xpm[] = {
"30 32 730 2",
"  	c #FFFFFF",
". 	c #FEFEFE",
"+ 	c #FDFDFD",
"@ 	c #FCFCFC",
"# 	c #F4FBFB",
"$ 	c #FBFBFD",
"% 	c #FFFAFD",
"& 	c #FFF8FC",
"* 	c #FFFCFE",
"= 	c #FEFBFD",
"- 	c #F5FBFC",
"; 	c #E4F9F6",
"> 	c #FAFAFB",
", 	c #FEF9F9",
"' 	c #F9FBF6",
") 	c #FBFDFA",
"! 	c #FAFDFD",
"~ 	c #D9F5F2",
"{ 	c #E6F9F9",
"] 	c #F8FAFC",
"^ 	c #FEFBFE",
"/ 	c #FEFBFC",
"( 	c #FDFCFD",
"_ 	c #C8E9E9",
": 	c #619C94",
"< 	c #8D9196",
"[ 	c #F0ECEF",
"} 	c #F3FCF8",
"| 	c #FAFCFA",
"1 	c #F8FDFD",
"2 	c #70AEA7",
"3 	c #3E7972",
"4 	c #6B8786",
"5 	c #DAE1E2",
"6 	c #F6F9F6",
"7 	c #F5FDFC",
"8 	c #80B9B6",
"9 	c #15695C",
"0 	c #272B33",
"a 	c #C5CED1",
"b 	c #AEC9C5",
"c 	c #C3C8C7",
"d 	c #F9F9F9",
"e 	c #FAFAFA",
"f 	c #ECF0F0",
"g 	c #8DC6C8",
"h 	c #1B7877",
"i 	c #196E6C",
"j 	c #365B5F",
"k 	c #BCC4C3",
"l 	c #EDF7F4",
"m 	c #5AA19B",
"n 	c #146B5C",
"o 	c #141D26",
"p 	c #7BB0AE",
"q 	c #277872",
"r 	c #313D3F",
"s 	c #D5D5D5",
"t 	c #F8F8F8",
"u 	c #F4F4F4",
"v 	c #F7F7F7",
"w 	c #F2F2F2",
"x 	c #848384",
"y 	c #646370",
"z 	c #387F85",
"A 	c #098381",
"B 	c #117473",
"C 	c #162E2B",
"D 	c #D2DAD7",
"E 	c #53918E",
"F 	c #174F4E",
"G 	c #324954",
"H 	c #369B97",
"I 	c #0E7B7F",
"J 	c #152E35",
"K 	c #898989",
"L 	c #DBDBDB",
"M 	c #C5C5C5",
"N 	c #959595",
"O 	c #A1A1A1",
"P 	c #FBFBFB",
"Q 	c #F6F6F6",
"R 	c #858383",
"S 	c #7E6D69",
"T 	c #283F40",
"U 	c #439599",
"V 	c #206E70",
"W 	c #081915",
"X 	c #B7B6AE",
"Y 	c #A9C8C4",
"Z 	c #5F6A6D",
"` 	c #6D7F84",
" .	c #257F77",
"..	c #1B6E73",
"+.	c #09161E",
"@.	c #949494",
"#.	c #C1C1C1",
"$.	c #BFBFBF",
"%.	c #636363",
"&.	c #484848",
"*.	c #D6D6D6",
"=.	c #F5F5F5",
"-.	c #A5A5A4",
";.	c #7D836F",
">.	c #262721",
",.	c #8B969D",
"'.	c #819DA3",
").	c #5A716E",
"!.	c #B4C9C3",
"~.	c #D0F2EF",
"{.	c #DEEDEB",
"].	c #DDEAE7",
"^.	c #A6C8C1",
"/.	c #677F80",
"(.	c #8C9093",
"_.	c #BEBEBE",
":.	c #858585",
"<.	c #2E2E2E",
"[.	c #ACACAC",
"}.	c #EDEDED",
"|.	c #F3F3F3",
"1.	c #D1D1D1",
"2.	c #C8C8C8",
"3.	c #F1F2F1",
"4.	c #A8B0AE",
"5.	c #443F42",
"6.	c #748082",
"7.	c #85C1BD",
"8.	c #4DA0A1",
"9.	c #297C85",
"0.	c #1D787D",
"a.	c #368984",
"b.	c #598781",
"c.	c #C0C0C0",
"d.	c #F3F2F1",
"e.	c #EEF1F0",
"f.	c #C2C2C2",
"g.	c #A7A7A7",
"h.	c #242424",
"i.	c #999999",
"j.	c #E6E6E6",
"k.	c #FBFDFD",
"l.	c #EDEBEE",
"m.	c #C3BFC5",
"n.	c #95969B",
"o.	c #6C6E74",
"p.	c #EDE6ED",
"q.	c #F9F0EC",
"r.	c #D0E2EA",
"s.	c #4F9CA1",
"t.	c #08806D",
"u.	c #137B6F",
"v.	c #216067",
"w.	c #184B4D",
"x.	c #26595E",
"y.	c #3A626C",
"z.	c #80909D",
"A.	c #D4E2E8",
"B.	c #F0F3F8",
"C.	c #E9DEE6",
"D.	c #7A7676",
"E.	c #728178",
"F.	c #B5C1BF",
"G.	c #C2BAC3",
"H.	c #A7A5A7",
"I.	c #888888",
"J.	c #787878",
"K.	c #717171",
"L.	c #EBEBEB",
"M.	c #F6F8F8",
"N.	c #F7F4F6",
"O.	c #EEE3E7",
"P.	c #CCC5C6",
"Q.	c #9A9D99",
"R.	c #4B504B",
"S.	c #CBE9DF",
"T.	c #44A09D",
"U.	c #0E797A",
"V.	c #113E3E",
"W.	c #46545C",
"X.	c #6E919C",
"Y.	c #69A5A2",
"Z.	c #338E85",
"`.	c #0D7F72",
" +	c #0C8075",
".+	c #228981",
"++	c #4F9E9D",
"@+	c #7CAEAE",
"#+	c #BECFD1",
"$+	c #C5BDC1",
"%+	c #867A80",
"&+	c #807F84",
"*+	c #6D6D6E",
"=+	c #585858",
"-+	c #363636",
";+	c #727272",
">+	c #DDDDDD",
",+	c #C6DDD9",
"'+	c #C0DAD8",
")+	c #EEF6F5",
"!+	c #F6EFEE",
"~+	c #DDDED5",
"{+	c #8AA090",
"]+	c #6EABB4",
"^+	c #0F7E7B",
"/+	c #1B6B67",
"(+	c #14151F",
"_+	c #9EAEBC",
":+	c #399493",
"<+	c #0E7D6F",
"[+	c #0E5F52",
"}+	c #1B544C",
"|+	c #34706E",
"1+	c #499396",
"2+	c #127D7C",
"3+	c #077F77",
"4+	c #176260",
"5+	c #7E7482",
"6+	c #BC9EAA",
"7+	c #6E7870",
"8+	c #868887",
"9+	c #ABABAB",
"0+	c #CCCCCC",
"a+	c #94C4C3",
"b+	c #1F6D69",
"c+	c #508383",
"d+	c #CBD7DF",
"e+	c #F4F6FB",
"f+	c #C8E5E3",
"g+	c #207C8B",
"h+	c #1D696F",
"i+	c #0E3432",
"j+	c #4D7574",
"k+	c #357F7C",
"l+	c #0F5C57",
"m+	c #1A2F33",
"n+	c #767076",
"o+	c #C7B3BA",
"p+	c #E3DCE1",
"q+	c #DBEFF1",
"r+	c #9FCED5",
"s+	c #228786",
"t+	c #087E76",
"u+	c #124248",
"v+	c #8C8A90",
"w+	c #D4DDD4",
"x+	c #E0E1E0",
"y+	c #F0F0F0",
"z+	c #CBE7E9",
"A+	c #367F7E",
"B+	c #22716C",
"C+	c #365C63",
"D+	c #7D8E97",
"E+	c #8BBEBF",
"F+	c #06827D",
"G+	c #0C4341",
"H+	c #415D5E",
"I+	c #4B9494",
"J+	c #195856",
"K+	c #203331",
"L+	c #8DABA6",
"M+	c #7EBAB4",
"N+	c #87C9C5",
"O+	c #B7DDDA",
"P+	c #F1EAEA",
"Q+	c #FAEEF4",
"R+	c #B3DBDC",
"S+	c #1F837D",
"T+	c #157371",
"U+	c #1B3638",
"V+	c #B8B7B7",
"W+	c #C2C1C1",
"X+	c #C9C9C9",
"Y+	c #929292",
"Z+	c #DCDCDC",
"`+	c #FAF5FA",
" @	c #D4E9E9",
".@	c #96D0C5",
"+@	c #82ACA7",
"@@	c #435959",
"#@	c #4D938A",
"$@	c #156F6B",
"%@	c #0C211E",
"&@	c #7B9E9F",
"*@	c #22727A",
"=@	c #0C3738",
"-@	c #6E8279",
";@	c #55968F",
">@	c #127A7A",
",@	c #097B81",
"'@	c #147876",
")@	c #3A7C6E",
"!@	c #A3B3A5",
"~@	c #E2ECE8",
"{@	c #7FB8BC",
"]@	c #1A7477",
"^@	c #092E32",
"/@	c #8B7E8A",
"(@	c #D6D2D3",
"_@	c #BBBEBC",
":@	c #7C7D7C",
"<@	c #3D3B3B",
"[@	c #AFB0AF",
"}@	c #F5F8F7",
"|@	c #F7FCF9",
"1@	c #FCF9FD",
"2@	c #F6F9FD",
"3@	c #F2F4F3",
"4@	c #EAEAED",
"5@	c #58A3A1",
"6@	c #0A5056",
"7@	c #404441",
"8@	c #83BAAC",
"9@	c #15747A",
"0@	c #0D2D3A",
"a@	c #778986",
"b@	c #488B8F",
"c@	c #085553",
"d@	c #2D6F78",
"e@	c #1D787A",
"f@	c #088079",
"g@	c #125652",
"h@	c #767273",
"i@	c #88C0C4",
"j@	c #087B76",
"k@	c #0E2D26",
"l@	c #7D7782",
"m@	c #F1E8EA",
"n@	c #ECF3EF",
"o@	c #E0EAE3",
"p@	c #E7E3E1",
"q@	c #EEEFEB",
"r@	c #F7FEFA",
"s@	c #CED4CE",
"t@	c #CDC7CB",
"u@	c #CCCED4",
"v@	c #B4B8B5",
"w@	c #DBDFE1",
"x@	c #4B9D98",
"y@	c #126166",
"z@	c #3B363C",
"A@	c #9EBDBA",
"B@	c #147678",
"C@	c #0F3F48",
"D@	c #667177",
"E@	c #598E91",
"F@	c #0D332E",
"G@	c #70787E",
"H@	c #96C9CD",
"I@	c #177C80",
"J@	c #0A726B",
"K@	c #2C2A2B",
"L@	c #7DA4B0",
"M@	c #11797A",
"N@	c #07241A",
"O@	c #428B7F",
"P@	c #97CFCB",
"Q@	c #DDE8ED",
"R@	c #F9F6FB",
"S@	c #F7FFFD",
"T@	c #FCFCF9",
"U@	c #FFF9FB",
"V@	c #D7DAD5",
"W@	c #C1B9BE",
"X@	c #A2A8AD",
"Y@	c #4C5651",
"Z@	c #4E5656",
"`@	c #489D97",
" #	c #117978",
".#	c #162A32",
"+#	c #8BA9AC",
"@#	c #167E77",
"##	c #136F6D",
"$#	c #2B414C",
"%#	c #99C0C6",
"&#	c #667A76",
"*#	c #9C9896",
"=#	c #A4DED8",
"-#	c #0F8282",
";#	c #06746F",
">#	c #141E1E",
",#	c #5D979F",
"'#	c #0D777A",
")#	c #0C1E1C",
"!#	c #49908A",
"~#	c #0C7D74",
"{#	c #195155",
"]#	c #88949E",
"^#	c #ECEBF1",
"/#	c #F8FCF8",
"(#	c #FAFEF9",
"_#	c #F8FAF6",
":#	c #E7E0E5",
"<#	c #C0C7CB",
"[#	c #B3BBB7",
"}#	c #D1D1D4",
"|#	c #5EA6A4",
"1#	c #067F78",
"2#	c #116160",
"3#	c #3B6365",
"4#	c #339088",
"5#	c #0C7F77",
"6#	c #20656E",
"7#	c #448186",
"8#	c #84B9B7",
"9#	c #7CAAA7",
"0#	c #1F8979",
"a#	c #048279",
"b#	c #13585D",
"c#	c #233936",
"d#	c #35928F",
"e#	c #087B7C",
"f#	c #0F1F20",
"g#	c #A1B1C0",
"h#	c #51949F",
"i#	c #117A73",
"j#	c #10665A",
"k#	c #596E6D",
"l#	c #E9E2E3",
"m#	c #FCF9F8",
"n#	c #FCFEFA",
"o#	c #FEF9FC",
"p#	c #F6FBFE",
"q#	c #F6FAF8",
"r#	c #FDF5FB",
"s#	c #91C4C7",
"t#	c #0D807D",
"u#	c #06837A",
"v#	c #134B4E",
"w#	c #4D7E7F",
"x#	c #18807D",
"y#	c #0F7C82",
"z#	c #0C7C78",
"A#	c #0A7E7F",
"B#	c #0B7A80",
"C#	c #04837C",
"D#	c #1A6968",
"E#	c #122032",
"F#	c #639088",
"G#	c #1B7F7C",
"H#	c #09777C",
"I#	c #145647",
"J#	c #67979B",
"K#	c #A2DFE4",
"L#	c #7BB5B7",
"M#	c #528181",
"N#	c #314040",
"O#	c #BEBDBE",
"P#	c #FBF6F8",
"Q#	c #FEF8FC",
"R#	c #FBF8FE",
"S#	c #E7FCFE",
"T#	c #D5EBED",
"U#	c #DBDDE4",
"V#	c #CCE2E4",
"W#	c #248B86",
"X#	c #04857D",
"Y#	c #177476",
"Z#	c #1D4F56",
"`#	c #66989D",
" $	c #5F9DA2",
".$	c #1E827B",
"+$	c #0B6F6B",
"@$	c #0D6765",
"#$	c #155651",
"$$	c #374042",
"%$	c #8595A1",
"&$	c #44948F",
"*$	c #157878",
"=$	c #15545C",
"-$	c #1C4E44",
";$	c #1A786D",
">$	c #137F7C",
",$	c #2B616B",
"'$	c #767386",
")$	c #D6CBD7",
"!$	c #E6EAE8",
"~$	c #F6FDF9",
"{$	c #F0FBFB",
"]$	c #89B6B2",
"^$	c #43928C",
"/$	c #2F7675",
"($	c #1F3A3A",
"_$	c #7F8B87",
":$	c #95CDCC",
"<$	c #1F817F",
"[$	c #04827D",
"}$	c #097B78",
"|$	c #145354",
"1$	c #749596",
"2$	c #ABD1CE",
"3$	c #A4BCBE",
"4$	c #A9B9C0",
"5$	c #B7C9D0",
"6$	c #B3CFD5",
"7$	c #559D9A",
"8$	c #117975",
"9$	c #0F6867",
"0$	c #103235",
"a$	c #7C969B",
"b$	c #8ECACA",
"c$	c #399496",
"d$	c #257074",
"e$	c #153038",
"f$	c #AEA7B0",
"g$	c #FAF5F4",
"h$	c #FBFEF9",
"i$	c #EDFEFC",
"j$	c #80B8AE",
"k$	c #337A71",
"l$	c #204948",
"m$	c #555B5F",
"n$	c #C7BFC0",
"o$	c #E9E6EB",
"p$	c #A6D2D4",
"q$	c #218683",
"r$	c #07817B",
"s$	c #0F746D",
"t$	c #448D85",
"u$	c #6AA2A4",
"v$	c #659BA5",
"w$	c #45959B",
"x$	c #148587",
"y$	c #117974",
"z$	c #105953",
"A$	c #143E3B",
"B$	c #2C7470",
"C$	c #276564",
"D$	c #737D88",
"E$	c #C6E3E6",
"F$	c #6C9392",
"G$	c #1C3231",
"H$	c #918F92",
"I$	c #F1EBEC",
"J$	c #FCFCFB",
"K$	c #FDFAFE",
"L$	c #F5F8FC",
"M$	c #DAEBEE",
"N$	c #DFE3E8",
"O$	c #E3D5DD",
"P$	c #B3A6A7",
"Q$	c #858780",
"R$	c #616668",
"S$	c #BACFD8",
"T$	c #518E96",
"U$	c #04847F",
"V$	c #038483",
"W$	c #03837D",
"X$	c #058479",
"Y$	c #0B8175",
"Z$	c #0F7369",
"`$	c #0F4042",
" %	c #394A48",
".%	c #A0B1AF",
"+%	c #338580",
"@%	c #0B7D71",
"#%	c #111D25",
"$%	c #BCB1B5",
"%%	c #E6F1ED",
"&%	c #CBDBD6",
"*%	c #D8D9D9",
"=%	c #FAF6F8",
"-%	c #FFFBFF",
";%	c #FBFEFF",
">%	c #F3FFFE",
",%	c #DDE5E2",
"'%	c #828C85",
")%	c #70877B",
"!%	c #344539",
"~%	c #423F3E",
"{%	c #CCBAC5",
"]%	c #E6E7F2",
"^%	c #99C7CA",
"/%	c #4A9699",
"(%	c #1F727F",
"_%	c #126F71",
":%	c #0F5F59",
"<%	c #14433D",
"[%	c #494E4D",
"}%	c #8F8391",
"|%	c #ACAFA9",
"1%	c #A69D96",
"2%	c #437F82",
"3%	c #058579",
"4%	c #0C312E",
"5%	c #7E7475",
"6%	c #EDF1EE",
"7%	c #F9FDFB",
"8%	c #FFFBFD",
"9%	c #FEFEFF",
"0%	c #FAFEFE",
"a%	c #FDFEFF",
"b%	c #FAFFFF",
"c%	c #FAFDFB",
"d%	c #CFC6C5",
"e%	c #7D7170",
"f%	c #252622",
"g%	c #756F6E",
"h%	c #BFC1BB",
"i%	c #C0CCC2",
"j%	c #B6C3BA",
"k%	c #56605E",
"l%	c #C9DDDB",
"m%	c #C4DDDD",
"n%	c #94A3A5",
"o%	c #A4AEB1",
"p%	c #B5C3C6",
"q%	c #C2D6D9",
"r%	c #E7E6F0",
"s%	c #98A996",
"t%	c #706959",
"u%	c #0B2732",
"v%	c #107E7D",
"w%	c #0F322E",
"x%	c #6D7373",
"y%	c #E5EEED",
"z%	c #FDFCFE",
"A%	c #FFFAFF",
"B%	c #FCFEFF",
"C%	c #F6FFFE",
"D%	c #F6F4F4",
"E%	c #CFCBCC",
"F%	c #B0AEAE",
"G%	c #E1D7DD",
"H%	c #B9C6BE",
"I%	c #B7C1B6",
"J%	c #6B6768",
"K%	c #1C393D",
"L%	c #237670",
"M%	c #34504E",
"N%	c #827F7E",
"O%	c #43514B",
"P%	c #407C78",
"Q%	c #227680",
"R%	c #485562",
"S%	c #9A9794",
"T%	c #6B7168",
"U%	c #182F28",
"V%	c #769F9D",
"W%	c #29363E",
"X%	c #999B9C",
"Y%	c #ECEEED",
"Z%	c #FFFEFF",
"`%	c #FDFEFE",
" &	c #E9E7E8",
".&	c #B9C3BC",
"+&	c #71726D",
"@&	c #38373D",
"#&	c #7AB1B5",
"$&	c #147471",
"%&	c #1C2A2B",
"&&	c #7B807D",
"*&	c #363A37",
"=&	c #436668",
"-&	c #12777A",
";&	c #1E5054",
">&	c #394042",
",&	c #757573",
"'&	c #1C221D",
")&	c #B7C8C4",
"!&	c #C7D1D4",
"~&	c #DDDEDE",
"{&	c #EAF0EB",
"]&	c #A8ACA7",
"^&	c #484144",
"/&	c #A5ADB7",
"(&	c #6CB2B5",
"_&	c #0A5B59",
":&	c #252B2E",
"<&	c #717F79",
"[&	c #221A19",
"}&	c #A1A4AD",
"|&	c #2C8F89",
"1&	c #106962",
"2&	c #1D2C2E",
"3&	c #81787E",
"4&	c #281F1F",
"5&	c #B3B4AF",
"6&	c #F2F5F2",
"7&	c #FFFFFE",
"8&	c #F9FEF9",
"9&	c #F4F2F0",
"0&	c #EAE4E8",
"a&	c #E1EEF3",
"b&	c #6CA3A3",
"c&	c #164949",
"d&	c #424645",
"e&	c #829289",
"f&	c #473B3D",
"g&	c #C8BFC9",
"h&	c #82C3BD",
"i&	c #196C65",
"j&	c #162327",
"k&	c #B1A7AD",
"l&	c #AA9C9C",
"m&	c #D4D1CC",
"n&	c #FCFCF8",
"o&	c #FDFDFC",
"p&	c #FDFDF9",
"q&	c #FFFCFB",
"r&	c #EFFDFB",
"s&	c #A2BEB9",
"t&	c #515B59",
"u&	c #8B918D",
"v&	c #C9D2CB",
"w&	c #BCBBB8",
"x&	c #E4E5E8",
"y&	c #E0F1F3",
"z&	c #4B7977",
"A&	c #232B2F",
"B&	c #C6C0C4",
"C&	c #FAF8F5",
"D&	c #FAFBF8",
"E&	c #FEFCFD",
"F&	c #FFFDFB",
"G&	c #FFFDFD",
"H&	c #FCFEFC",
"I&	c #F4FDFA",
"J&	c #F3F8F3",
"K&	c #EEE7E5",
"L&	c #E8EDE9",
"M&	c #F7FAF7",
"N&	c #F5FAF7",
"O&	c #F6FCFB",
"P&	c #FAF6FC",
"Q&	c #D9E5E6",
"R&	c #ABAFB2",
"S&	c #E0DEDF",
"T&	c #FBFEFD",
"U&	c #FDFAFC",
"        . + @ # $ % & * = - ; > , ' ) .                     ",
"        . + ! ~ { ] ^ / ( _ : < [ } | . .                   ",
"        . @ 1 2 3 4 5 6 7 8 9 0 a b c d   . . .             ",
"        . e f g h i j k l m n o p q r s t u t v . +         ",
"        + w x y z A B C D E F G H I J K L M N O u . .       ",
"  . + + P Q R S T U V W X Y Z `  ...+.@.#.$.%.&.*.+ @   . . ",
"  + @ P =.d -.;.>.,.'.).!.~.{.].^./.(._._.:.<.[.}.P + + + . ",
"  @ |.1.2.|.3.4.5.6.7.8.9.0.a.b.c.d.e.f.g.h.i.j.P d Q d + . ",
". k.l.m.n.o.p.q.r.s.t.u.v.w.x.y.z.A.B.C.D.E.F.G.H.I.J.K.L.+ ",
"+ M.N.O.P.Q.R.S.T.U.V.W.X.Y.Z.`. +.+++@+#+$+%+&+*+=+-+;+>+P ",
"+ ,+'+)+!+~+{+]+^+/+(+_+:+<+[+}+|+1+2+3+4+5+6+7+8+9+0+j.d @ ",
"+ a+b+c+d+e+f+g+h+i+j+k+l+m+n+o+p+q+r+s+t+u+v+w+x+y+t e e @ ",
"+ z+A+B+C+D+E+F+G+H+I+J+K+L+M+N+O+P+Q+R+S+T+U+V+W+f.X+Y+Z+d ",
"+ `+ @.@+@@@#@$@%@&@*@=@-@;@>@,@'@)@!@~@{@]@^@/@(@_@:@<@[@}@",
"@ |@1@2@3@4@5@6@7@8@9@0@a@b@c@d@e@f@g@h@i@j@k@l@m@n@o@p@q@r@",
"P s@t@u@v@w@x@y@z@A@B@C@D@E@F@G@H@I@J@K@L@M@N@O@P@Q@R@S@T@U@",
"@ V@W@X@Y@Z@`@ #.#+#@###$#%#&#*#=#-#;#>#,#'#)#!#~#{#]#^#/#(#",
"  _#:#<#[#}#|#1#2#3#4#5#6#7#8#9#0#a#b#c#d#e#f#g#h#i#j#k#l#m#",
"  n#o#p#q#r#s#t#u#v#w#x#y#z#A#B#C#D#E#F#G#H#I#J#K#L#M#N#O#P#",
". Q#R#S#T#U#V#W#X#Y#Z#`# $.$+$@$#$$$%$&$*$=$-$;$>$,$'$)$!$~$",
"@ {$]$^$/$($_$:$<$[$}$|$1$2$3$4$5$6$7$8$9$0$a$b$c$d$e$f$g$h$",
"@ i$j$k$l$m$n$o$p$q$C#r$s$t$u$v$w$x$y$z$A$B$C$D$E$F$G$H$I$J$",
". K$L$M$N$O$P$Q$R$S$T$>@U$V$W$X$Y$Z$`$ %.%+%@%#%$%%%&%*%=%@ ",
"  -%;%>%,%'%)%!%~%{%]%^%/%(%_%:%<%[%}%|%1%2%3%4%5%6%7%8%9%0%",
"  a%b%c%d%e%f%g%h%i%j%k%l%m%n%o%p%q%r%s%t%u%v%w%x%y%z%A%B%C%",
"        D%E%F%G%H%I%J%K%L%M%N%O%P%Q%R%S%T%U%V%W%X%Y%+ Z%  `%",
"        P e t  &.&+&@&#&$&%&&&*&=&-&;&>&,&'&)&!&~&d @     . ",
"        @ @ P {&]&^&/&(&_&:&<&[&}&|&1&2&3&4&5&6&@ @ +     . ",
"+ + + +     7&8&9&0&a&b&c&d&e&f&g&h&i&j&k&l&m&n&o&+ +     . ",
"+ + + +     7&p&q&@ r&s&t&u&v&w&x&y&z&A&B&C&D&E&+ + +     . ",
". . . .       F&G&H&I&J&K&L&M&N&O&P&Q&R&S&| T&U&. . .     . ",
"                    @ @ + + + + @ @ @ e P                 . "};
