/* XPM */
static char * LC_grab_tongs01_xpm[] = {
"32 32 2 1",
" 	c None",
".	c #000000",
"                                ",
"      .....                     ",
"      .   .                     ",
"      .   .                     ",
"   ....   ....                  ",
"   .   ...   .                  ",
"   .   . .   .                  ",
"....   . .   ....               ",
".   .... ....   .               ",
".   .       .   .               ",
".   .       .   ....            ",
".....       ....   .            ",
"               .   .            ",
"               .   .............",
"               ....             ",
"                  .             ",
"                  .             ",
"               ....             ",
"               .   .............",
"               .   .            ",
".....       ....   .            ",
".   .       .   ....            ",
".   .       .   .               ",
".   .... ....   .               ",
"....   . .   ....               ",
"   .   . .   .                  ",
"   .   ...   .                  ",
"   ....   ....                  ",
"      .   .                     ",
"      .   .                     ",
"      .....                     ",
"                                "};
