/* XPM */
static char * LC_undefined_xpm[] = {
"32 32 3 1",
" 	c None",
".	c #000000",
"+	c #ED0D47",
"                                ",
"                                ",
"                                ",
"                                ",
"                                ",
"                                ",
"                                ",
"                                ",
"                                ",
"                                ",
"                                ",
".........                       ",
".   .   .                       ",
".   .   .                       ",
".       .                       ",
"+.. . ...                       ",
".       .                       ",
".   .   .                       ",
".   .   .                       ",
".........                       ",
"                                ",
"                                ",
"                                ",
"                                ",
"                                ",
"                                ",
"                                ",
"                                ",
"                                ",
"                                ",
"                                ",
"                                "};
