/* XPM */
static char * mass_xpm[] = {
"32 32 3 1",
" 	c None",
".	c #AAA0F7",
"+	c #000000",
"                                ",
"                                ",
"                                ",
"                                ",
"                                ",
"                                ",
"           .........            ",
"          ...........           ",
"        ...............         ",
"        ...............         ",
"       .................        ",
"      ...................       ",
"      ......++...++......       ",
"      ......+.+.+.+......       ",
"      ......+..+..+......       ",
"      ......+.....+......       ",
"      ......+.....+......       ",
"      ......+.....+......       ",
"      ......+.....+......       ",
"      ...................       ",
"       .................        ",
"        ...............         ",
"        ...............         ",
"          ...........           ",
"           .........            ",
"                                ",
"                                ",
"                                ",
"                                ",
"                                ",
"                                ",
"                                "};
