#define modeller_width 32
#define modeller_height 32
static unsigned char modeller_bits[] = {
   0x00, 0x00, 0x00, 0x00, 0x00, 0x00, 0x00, 0x00, 0x00, 0x00, 0x00, 0x00,
   0x00, 0x00, 0x00, 0x00, 0x00, 0x00, 0x00, 0x00, 0x00, 0x00, 0xa8, 0x00,
   0x00, 0x00, 0x50, 0x01, 0x00, 0x00, 0x00, 0x01, 0x00, 0x00, 0x8c, 0x00,
   0x00, 0x00, 0x08, 0x01, 0x00, 0x7e, 0x44, 0x01, 0x00, 0x7f, 0x08, 0x01,
   0x80, 0x7f, 0x84, 0x00, 0x80, 0x73, 0x3c, 0x01, 0x80, 0x73, 0x80, 0x00,
   0x80, 0x73, 0x14, 0x00, 0x80, 0x73, 0x00, 0x00, 0x80, 0x73, 0x00, 0x00,
   0x80, 0x7f, 0xf8, 0x01, 0x80, 0x3f, 0xfc, 0x01, 0x80, 0x1f, 0xfe, 0x01,
   0x00, 0x00, 0xce, 0x01, 0x00, 0x00, 0xce, 0x01, 0x00, 0x00, 0xce, 0x01,
   0x00, 0x00, 0xce, 0x01, 0x00, 0x00, 0xce, 0x01, 0x00, 0x00, 0xfe, 0x01,
   0x00, 0x00, 0xfe, 0x00, 0x00, 0x00, 0x7e, 0x00, 0x00, 0x00, 0x00, 0x00,
   0x00, 0x00, 0x00, 0x00, 0x00, 0x00, 0x00, 0x00 };
