/* XPM */
static char * modeller_xpm[] = {
"32 32 7 1",
" 	c #FFFFFF",
".	c #6E7500",
"+	c #B6C200",
"@	c #F0FF00",
"#	c #8F0011",
"$	c #C20017",
"%	c #F4001D",
"                                ",
"                                ",
"                                ",
"                                ",
"                                ",
"                   ......       ",
"                  ++++++.       ",
"                 @@@@@@+.       ",
"                 @+.  @+.       ",
"                 @+.  @+.       ",
"         ######  @+.  @+.       ",
"        $$$$$$#  @+.  @+.       ",
"       %%%%%%$#  @+.  @+.       ",
"       %$#  %$#  @+...@+.       ",
"       %$#  %$#  @++++@+        ",
"       %$#  %$#  @@@@@@         ",
"       %$#  %$#                 ",
"       %$#  %$#                 ",
"       %$###%$#    ######       ",
"       %$$$$%$    $$$$$$#       ",
"       %%%%%%    %%%%%%$#       ",
"                 %$#  %$#       ",
"                 %$#  %$#       ",
"                 %$#  %$#       ",
"                 %$#  %$#       ",
"                 %$#  %$#       ",
"                 %$###%$#       ",
"                 %$$$$%$        ",
"                 %%%%%%         ",
"                                ",
"                                ",
"                                "};
