/* XPM */
static char * sink_xpm[] = {
"32 32 3 1",
" 	c None",
".	c #BEC70D",
"+	c #000000",
"                                ",
"                                ",
"                                ",
"                                ",
"                                ",
"             .................  ",
"             .................  ",
"             .................  ",
"             .................  ",
"                         .....  ",
"                         .....  ",
"                         .....  ",
"         ++              .....  ",
"          +++            .....  ",
"++++++++++++++           .....  ",
"+++++++++++++++          .....  ",
"+++++++++++++++          .....  ",
"++++++++++++++           .....  ",
"          +++            .....  ",
"         ++              .....  ",
"                         .....  ",
"                         .....  ",
"                         .....  ",
"             .................  ",
"             .................  ",
"             .................  ",
"             .................  ",
"                                ",
"                                ",
"                                ",
"                                ",
"                                "};
