/* XPM */
static char * c_dive_expl01_xpm[] = {
"32 32 2 1",
" 	c None",
".	c #000000",
"               .. .             ",
"            .....  .            ",
"          ...  .    .           ",
"               .     .          ",
"           .. ..      ...       ",
"     .    ..  .      .. ..      ",
"    ..   ..   .      .   .      ",
"   ..   ..               .      ",
"  ..   ..               ..      ",
"  .   ..               .        ",
"   .  .              ..         ",
"    .     ..         .          ",
"     .   ..          .   ..     ",
"      . ..           ..  .      ",
"       ..             ....      ",
"                                ",
"                       ..       ",
"                       ..       ",
"                                ",
"                                ",
"                                ",
"                                ",
"                                ",
"                                ",
"                                ",
"                                ",
"                                ",
"                                ",
"                                ",
"                                ",
"                                ",
"                                "};
