/* XPM */
static char * TC_L_markdel_R_del_xpm[] = {
"32 32 4 1",
" 	c None",
".	c #000000",
"+	c #FFFFFF",
"@	c #999999",
"              .++.              ",
"      ....   . .. .         .   ",
"     .@@@@. .      .       .    ",
"    .@@@@@@.        .     .     ",
"   .@@@@@@@@.        .   .      ",
"  .@@@@@@@@@@.        . .       ",
"  .@@@@@@@@@@.         .        ",
"  .@@@@@@@@@@.        . .       ",
"  .@@@@@@@@@@.       .   .      ",
"   .@@@@@@@@.       .     .     ",
"    .@@@@@@.       .       .    ",
"     .@@@@.       .         .   ",
"      ....                      ",
"                                ",
"                                ",
"                                ",
"                                ",
"                                ",
"                                ",
"                                ",
"                                ",
"                                ",
"                                ",
"                                ",
"                                ",
"                                ",
"                                ",
"                                ",
"                                ",
"                                ",
"                                ",
"                                "};
