/* XPM */
static char * TC_L_insknot_R_blank_xpm[] = {
"32 32 3 1",
" 	c None",
".	c #000000",
"+	c #FFFFFF",
"             ..+                ",
"              ..                ",
"             . .                ",
"            .                   ",
"       ... .                    ",
"      .....                     ",
"     .......                    ",
"     .......                    ",
"     .......                    ",
"      .....                     ",
"       ...                      ",
"                                ",
"                                ",
"                                ",
"                                ",
"                                ",
"                                ",
"                                ",
"                                ",
"                                ",
"                                ",
"                                ",
"                                ",
"                                ",
"                                ",
"                                ",
"                                ",
"                                ",
"                                ",
"                                ",
"                                ",
"                                "};
