/* XPM */
static char * TC_L_add_R_frfile_xpm[] = {
"32 32 4 1",
" 	c None",
".	c #120E0C",
"+	c #000000",
"@	c #FFFFFF",
"           ..+++@@@@@           ",
"           .@@@+@+++@           ",
"           .@+@+@++@            ",
"         ...@@@+@+@+@@          ",
"         +@@@..+@@ @+@          ",
"         +@+@+      @+@         ",
"       +++@@@+       @+@        ",
"       +@@@+++        @+@       ",
"       +@+@+           @+@      ",
"     +++@@@+            @+@     ",
"     +@@@+++             @+@    ",
"     +@+@+                @+@   ",
"++++++@@@+                 @+@  ",
"+@@@@@@+++              ++++++++",
"+@@@+@@@+               +@@@@@@+",
"+@@@+@@@+               +@@+++@+",
"+@+++++@+               +@@+@+@+",
"+@@@+@@@+               +@@+@@@+",
"+@@@+@@@+               +@@+@@@+",
"+@@@@@@@+               +@@+@@@+",
"+++++++++               +@+++@@+",
"                        +@@+@@@+",
"                        +@@+@@@+",
"                        +@@+@@@+",
"                        +@@+@@@+",
"                        +@@+@@@+",
"                        +@@+@@@+",
"                        +@@+@@@+",
"                        +@+++@@+",
"                        ++++++@+",
"                        ++++++++",
"                        ++++++++"};
