/* XPM */
static char * TC_L_move_R_ask_xpm[] = {
"32 32 2 1",
" 	c None",
".	c #000000",
"       .          .             ",
"       .           .            ",
"      ...           .           ",
"     .....           .          ",
"       .              ...       ",
"  .    .    .        .. ..      ",
" ..    .    ..       .   .      ",
"...............          .      ",
" ..    .    ..          ..      ",
"  .    .    .          .        ",
"       .             ..         ",
"     .....           .          ",
"      ...            .   ..     ",
"       .             ..  .      ",
"                      ....      ",
"                                ",
"                       ..       ",
"                       ..       ",
"                                ",
"                                ",
"                                ",
"                                ",
"                                ",
"                                ",
"                                ",
"                                ",
"                                ",
"                                ",
"                                ",
"                                ",
"                                ",
"                                "};
