/* XPM */
static char * c_dive_select01_xpm[] = {
"32 32 3 1",
" 	c None",
".	c #000000",
"+	c #FFFFFF",
"             ..  ........       ",
"          ... .  .++++++.       ",
"        ...  .   .++++..        ",
"             .   .+++.          ",
"         .. ..   .++.+.         ",
"   .    ..  .    .+. .+.        ",
"  ..   ..   .    .+.  .+.       ",
" ..   ..         ..    .+.      ",
"..   ..                 .+.     ",
".   ..                   .+.    ",
" .  .                     .+.   ",
"  .     ..                 .+.  ",
"   .   ..                   .+. ",
"    . ..                     .  ",
"     ..                         ",
"                                ",
"                                ",
"                                ",
"                                ",
"                                ",
"                                ",
"                                ",
"                                ",
"                                ",
"                                ",
"                                ",
"                                ",
"                                ",
"                                ",
"                                ",
"                                ",
"                                "};
