/* XPM */
static char * c_expl_arc_xpm[] = {
"32 32 2 1",
" 	c None",
".	c #000000",
".                               ",
" ...                            ",
" .....                          ",
" .......                        ",
"  ..                            ",
"  .. .                          ",
"   .  ....   ...                ",
"   .  ..    .....               ",
"      . .   .   ..              ",
"      .  .      ..              ",
"          .     ..              ",
"               ..               ",
"            ....                ",
"           ...                  ",
"           ..    .              ",
"           ..   ..              ",
"           ......               ",
"            ..... .             ",
"                   ....         ",
"                   ..           ",
"              ..   . .          ",
"              ..   .  ....      ",
"                      ..        ",
"                      . .       ",
"                      .         ",
"                                ",
"                                ",
"                                ",
"                                ",
"                                ",
"                                ",
"                                "};
