/* XPM */
static char * TL_arrow_xpm[] = {
"32 32 3 1",
" 	c None",
".	c #000000",
"+	c #FFFFFF",
".............                   ",
".+++.+++.+++.                   ",
".+.+.+.+.+.+.                   ",
".+++++++.+++.                   ",
"...+.+.......                   ",
".+++++++.                       ",
".+.+.+.+...                     ",
".+++.+++++.                     ",
".......+.+...                   ",
".+++. .+++++.                   ",
".+.+. ...+.+...                 ",
".+++.   .+++++.                 ",
".....   ...+.+...               ",
"          .+++++.               ",
"          ...+.+.               ",
"            .+++.               ",
"            .....               ",
"                                ",
"                                ",
"                                ",
"                                ",
"                                ",
"                                ",
"                                ",
"                                ",
"                                ",
"                                ",
"                                ",
"                                ",
"                                ",
"                                ",
"                                "};
