/* XPM */
static char * TL_L_blank_R_convert_xpm[] = {
"32 32 4 1",
" 	c None",
".	c #120E0C",
"+	c #000000",
"@	c #FFFFFF",
".....                           ",
".   .                           ",
". + .                           ",
".   ....                        ",
"....   .                        ",
"   .   .                        ",
"   .   ....                     ",
"   ....   .                     ",
"      .   .                     ",
"      .   ....                  ",
"      ....   .                  ",
"         .   .                  ",
"         .   ....               ",
"         ....   .               ",
"            .   .               ",
"            .   ................",
"++++++++++++.                   ",
"+                               ",
"+                               ",
"+                               ",
"+   ++++++++       ++           ",
"+   ++++++++        ++    +++++ ",
"+   ++@@@@++         ++   +++++ ",
"+   ++@@@@++  ++++++++++  +++++ ",
"+   ++@@@@++         ++   +++++ ",
"+   ++@@@@++        ++    +++++ ",
"+   ++++++++       ++           ",
"+   ++++++++                    ",
"+                               ",
"+                               ",
"+                               ",
"++++++++++++++++++++++++++++++++"};
