/* XPM */
static char * c_hand03_xpm[] = {
"32 32 2 1",
" 	c None",
".	c #FFFFFF",
"                                ",
"                                ",
" ..                             ",
" ..                             ",
" ..                 ...         ",
"    ..            .....         ",
"  .  ..        .......          ",
"   . ...      ...  .            ",
"    .  ..   ......              ",
"     .. .. .  ....              ",
"      .. ....  ..  ..           ",
"       .. ....  .   ..          ",
"        .. .... ..         .    ",
"         ...... ....       .    ",
"          ...    ...        .   ",
"          ...         .     ... ",
"         ..........    .    ....",
"         ............      .....",
"         ..............     ... ",
"          ................   .. ",
"          ..................    ",
"           ................    .",
"            ...............    .",
"             ...............    ",
"                    ..........  ",
"                         .......",
"                           .....",
"                               .",
"                                ",
"                                ",
"                                ",
"                                "};
