/* XPM */
static char * work_c_xpm[] = {
"32 32 3 1",
" 	c None",
".	c #000000",
"+	c #672A2A",
"           ....                 ",
"          ....                  ",
"        ....                    ",
"       ....                     ",
"      ....                      ",
"     .....                      ",
"     ....+.                     ",
"    .....++.                    ",
"   .......++..                  ",
"   .... ...++..                 ",
"  .....  ..++..                 ",
"  ....    ..++..                ",
"  ....      .++..               ",
"  .. .       .++...             ",
" .....        .++...            ",
" ....         ..++...           ",
"  .             .+++.           ",
" ..              +++...         ",
" ..               +++...        ",
"                   ++++..       ",
"                    ++++...     ",
"                     ++++...    ",
"                      ++.++..   ",
"                       +++++... ",
"                        ++++....",
"                         ++++...",
"                          ++++..",
"                           ++++.",
"                            ++++",
"                             +++",
"                              ++",
"                                "};
