/* XPM */
static char * work_xpm[] = {
"32 32 3 1",
" 	c None",
".	c #000000",
"+	c #857A7A",
"           ....                 ",
"          ....                  ",
"        ....                    ",
"       ....                     ",
"      ....                      ",
"     .....                      ",
"     .... .                     ",
"    .....++.                    ",
"   .......++..                  ",
"   .... .... ..                 ",
"  .....  ..++..                 ",
"  ....    ..++..                ",
"  ....      .++..               ",
"  .. .       .+....             ",
" .....        .++...            ",
" ....         ..++...           ",
"  .             .+++.           ",
" ..              +++...         ",
" ..                ++...        ",
"                    .++..       ",
"                     +++...     ",
"                       ++...    ",
"                        .++..   ",
"                         ++.... ",
"                          .+....",
"                          +++...",
"                            ++..",
"                              +.",
"                                ",
"                                ",
"                                ",
"                                "};
