/* XPM */
static char * source_xpm[] = {
"32 32 4 1",
" 	c None",
".	c #BCC70D",
"+	c #BEC70D",
"@	c #000000",
"                                ",
"                                ",
"                                ",
"                                ",
"                                ",
"  .................             ",
"  .................             ",
"  ..+++............             ",
"  ..+++............             ",
"  ..+++                         ",
"  ..+++                         ",
"  ..+++                         ",
"  ..+++                   @@    ",
"  ..+++                    @@@  ",
"  ..+++       @@@@@@@@@@@@@@@@@ ",
"  ..+++       @@@@@@@@@@@@@@@@@@",
"  .++++       @@@@@@@@@@@@@@@@@@",
"  .++++       @@@@@@@@@@@@@@@@@ ",
"  .++++                    @@@  ",
"  .++++                   @@    ",
"  .++++                         ",
"  .++++                         ",
"  ..+++                         ",
"  ..+++++++++++++++             ",
"  ..+++++++++++++++             ",
"  ..+++++++++++++++             ",
"  .....++++++++++++             ",
"                                ",
"                                ",
"                                ",
"                                ",
"                                "};
